<?xml version="1.0" encoding="utf-8"?>
<!-- Generator: Adobe Illustrator 24.0.1, SVG Export Plug-In . SVG Version: 6.00 Build 0)  -->
<svg version="1.1" id="object" xmlns="http://www.w3.org/2000/svg" xmlns:xlink="http://www.w3.org/1999/xlink" x="0px" y="0px"
	 viewBox="0 0 1000 1000" style="enable-background:new 0 0 1000 1000;" xml:space="preserve">
<style type="text/css">
	.st0{fill:url(#SVGID_2_);}
	.st1{fill:url(#SVGID_3_);}
	.st2{fill:url(#SVGID_4_);}
	.st3{fill:url(#SVGID_5_);}
	.st4{fill:url(#SVGID_6_);}
	.st5{fill:url(#SVGID_7_);}
	.st6{fill:url(#SVGID_8_);}
	.st7{fill:url(#SVGID_9_);}
	.st8{clip-path:url(#SVGID_12_);}
	.st9{clip-path:url(#SVGID_13_);fill:url(#SVGID_14_);}
	.st10{fill:url(#SVGID_15_);}
	.st11{fill:url(#SVGID_16_);}
	.st12{clip-path:url(#SVGID_18_);}
</style>
<g>
	<g>
		<g>
			
				<linearGradient id="SVGID_2_" gradientUnits="userSpaceOnUse" x1="503.9999" y1="255.3" x2="503.9999" y2="778.2" gradientTransform="matrix(1 0 0 -1 0 999)">
				<stop  offset="0" style="stop-color:#9A9A9A"/>
				<stop  offset="9.364340e-02" style="stop-color:#A2A2A2"/>
				<stop  offset="0.2383" style="stop-color:#B8B8B8"/>
				<stop  offset="0.415" style="stop-color:#DBDBDB"/>
				<stop  offset="0.447" style="stop-color:#E2E2E2"/>
				<stop  offset="1" style="stop-color:#C5C5C5"/>
			</linearGradient>
			<path class="st0" d="M877,220.8H131c-13.4,0-24.2,10.7-24.2,23.9v499h3.5V241.3c0-1.1,0.1-2.1,0.2-3.1c0-0.3,0.1-0.7,0.2-1
				s0.1-0.7,0.2-1s0.2-0.7,0.3-1c0.9-2.7,2.3-5.2,4.1-7.3c0.2-0.2,0.4-0.5,0.7-0.7c0.1-0.1,0.2-0.2,0.3-0.3c1.1-1,2.2-2,3.5-2.8
				c0.4-0.3,0.8-0.5,1.3-0.8c0.4-0.2,0.9-0.5,1.3-0.7l0,0c0.3-0.1,0.6-0.3,0.9-0.4l0,0c2.3-0.9,4.9-1.4,7.6-1.4H877
				c3.5,0,6.9,0.9,9.8,2.5c0.4,0.2,0.9,0.5,1.3,0.8c0.6,0.4,1.1,0.7,1.6,1.1l0,0c0.3,0.2,0.5,0.4,0.8,0.6l0,0c0.4,0.3,0.7,0.7,1.1,1
				c0.1,0.1,0.2,0.2,0.3,0.3c0.2,0.2,0.5,0.5,0.7,0.7c3.1,3.6,5.1,8.3,5.1,13.4v502.4h3.5V243.2C900.4,230.7,889.9,220.8,877,220.8z
				"/>
			
				<linearGradient id="SVGID_3_" gradientUnits="userSpaceOnUse" x1="504" y1="754.3" x2="504" y2="781.6" gradientTransform="matrix(1 0 0 -1 0 999)">
				<stop  offset="0" style="stop-color:#404040"/>
				<stop  offset="0.2805" style="stop-color:#434343"/>
				<stop  offset="0.4483" style="stop-color:#4B4B4B"/>
				<stop  offset="0.5865" style="stop-color:#595959"/>
				<stop  offset="0.7086" style="stop-color:#6D6D6D"/>
				<stop  offset="0.8201" style="stop-color:#888888"/>
				<stop  offset="0.9223" style="stop-color:#A7A7A7"/>
				<stop  offset="1" style="stop-color:#C5C5C5"/>
			</linearGradient>
			<path class="st1" d="M106.8,241.3c0-13.2,10.8-23.9,24.2-23.9h746c13.4,0,24.2,10.7,24.2,23.9v1.9c-0.8-12.5-11.3-22.4-24.2-22.4
				H131c-13.4,0-24.2,10.7-24.2,23.9V241.3z"/>
			<g>
				<rect x="110.3" y="729.7" width="787.4" height="14"/>
				<path d="M897.7,241.4v488.3H110.3V241.4c0-11.3,9.3-20.5,20.7-20.5h746C888.4,220.9,897.7,230.1,897.7,241.4z"/>
				<polygon points="901.2,743.7 901.2,745 897.7,745 897.7,745 110.3,745 110.3,745 106.8,745 106.8,743.7 				"/>
			</g>
		</g>
		<g>
			<g>
				<g>
					
						<linearGradient id="SVGID_4_" gradientUnits="userSpaceOnUse" x1="10" y1="245.9" x2="500" y2="245.9" gradientTransform="matrix(1 0 0 -1 0 999)">
						<stop  offset="0" style="stop-color:#929292"/>
						<stop  offset="1.390270e-02" style="stop-color:#C1C1C1"/>
						<stop  offset="2.710927e-02" style="stop-color:#B2B2B2"/>
						<stop  offset="4.865940e-02" style="stop-color:#9C9C9C"/>
						<stop  offset="7.148906e-02" style="stop-color:#A4A4A4"/>
						<stop  offset="9.091141e-02" style="stop-color:#AFAFAF"/>
						<stop  offset="1" style="stop-color:#CFCFCF"/>
					</linearGradient>
					<rect x="10" y="745.7" class="st2" width="490" height="14.8"/>
					
						<linearGradient id="SVGID_5_" gradientUnits="userSpaceOnUse" x1="10" y1="253.65" x2="990.1" y2="253.65" gradientTransform="matrix(1 0 0 -1 0 999)">
						<stop  offset="5.456971e-03" style="stop-color:#F8F8F8"/>
						<stop  offset="6.385440e-02" style="stop-color:#D0D0D0"/>
						<stop  offset="0.5025" style="stop-color:#F8F8F8"/>
						<stop  offset="0.8664" style="stop-color:#D0D0D0"/>
						<stop  offset="0.8755" style="stop-color:#D3D3D3"/>
						<stop  offset="0.9512" style="stop-color:#E9E9E9"/>
						<stop  offset="1" style="stop-color:#F1F1F1"/>
					</linearGradient>
					<rect x="10" y="745" class="st3" width="980.1" height="0.7"/>
					
						<linearGradient id="SVGID_6_" gradientUnits="userSpaceOnUse" x1="500" y1="245.9" x2="990" y2="245.9" gradientTransform="matrix(1 0 0 -1 0 999)">
						<stop  offset="0" style="stop-color:#CFCFCF"/>
						<stop  offset="0.9091" style="stop-color:#AFAFAF"/>
						<stop  offset="0.9285" style="stop-color:#A4A4A4"/>
						<stop  offset="0.9513" style="stop-color:#9C9C9C"/>
						<stop  offset="0.9729" style="stop-color:#B2B2B2"/>
						<stop  offset="0.9861" style="stop-color:#C1C1C1"/>
						<stop  offset="1" style="stop-color:#929292"/>
					</linearGradient>
					<rect x="500" y="745.7" class="st4" width="490" height="14.8"/>
				</g>
				<g>
					
						<linearGradient id="SVGID_7_" gradientUnits="userSpaceOnUse" x1="10" y1="246.3" x2="500" y2="246.3" gradientTransform="matrix(1 0 0 -1 0 999)">
						<stop  offset="0" style="stop-color:#666666"/>
						<stop  offset="1.390270e-02" style="stop-color:#D5D5D5"/>
						<stop  offset="2.129159e-02" style="stop-color:#BDBDBD"/>
						<stop  offset="3.973258e-02" style="stop-color:#868686"/>
						<stop  offset="4.865940e-02" style="stop-color:#707070"/>
						<stop  offset="5.719722e-02" style="stop-color:#787878"/>
						<stop  offset="7.046560e-02" style="stop-color:#8E8E8E"/>
						<stop  offset="8.672331e-02" style="stop-color:#B2B2B2"/>
						<stop  offset="9.091141e-02" style="stop-color:#BCBCBC"/>
						<stop  offset="1" style="stop-color:#F1F1F1"/>
					</linearGradient>
					<rect x="10" y="745.7" class="st5" width="490" height="14"/>
					
						<linearGradient id="SVGID_8_" gradientUnits="userSpaceOnUse" x1="500" y1="246.3" x2="990" y2="246.3" gradientTransform="matrix(1 0 0 -1 0 999)">
						<stop  offset="0" style="stop-color:#F1F1F1"/>
						<stop  offset="0.9091" style="stop-color:#BCBCBC"/>
						<stop  offset="0.9133" style="stop-color:#B2B2B2"/>
						<stop  offset="0.9295" style="stop-color:#8E8E8E"/>
						<stop  offset="0.9428" style="stop-color:#787878"/>
						<stop  offset="0.9513" style="stop-color:#707070"/>
						<stop  offset="0.9603" style="stop-color:#868686"/>
						<stop  offset="0.9787" style="stop-color:#BDBDBD"/>
						<stop  offset="0.9861" style="stop-color:#D5D5D5"/>
						<stop  offset="1" style="stop-color:#666666"/>
					</linearGradient>
					<rect x="500" y="745.7" class="st6" width="490" height="14"/>
				</g>
				
					<linearGradient id="SVGID_9_" gradientUnits="userSpaceOnUse" x1="430.3" y1="248.4" x2="569.7" y2="248.4" gradientTransform="matrix(1 0 0 -1 0 999)">
					<stop  offset="0" style="stop-color:#9F9F9F"/>
					<stop  offset="3.953490e-02" style="stop-color:#ACACAC"/>
					<stop  offset="0.514" style="stop-color:#E5E5E5"/>
					<stop  offset="0.9628" style="stop-color:#ACACAC"/>
					<stop  offset="1" style="stop-color:#9F9F9F"/>
				</linearGradient>
				<path class="st7" d="M569.7,745c0,3.1-1.3,6-3.3,8c-2.1,2.1-4.9,3.3-8,3.3H441.6c-6.3,0-11.3-5.1-11.3-11.4h139.4V745z"/>
				<g>
					<g>
						<defs>
							<polygon id="SVGID_10_" points="1,1 2,1 1,2 							"/>
						</defs>
						<defs>
							<polygon id="SVGID_11_" points="-1,-1 -2,-1 -1,-2 							"/>
						</defs>
						<clipPath id="SVGID_12_">
							<use xlink:href="#SVGID_10_"  style="overflow:visible;"/>
						</clipPath>
						<clipPath id="SVGID_13_" class="st8">
							<use xlink:href="#SVGID_11_"  style="overflow:visible;"/>
						</clipPath>
						
							<linearGradient id="SVGID_14_" gradientUnits="userSpaceOnUse" x1="429.7" y1="248.05" x2="570.4" y2="248.05" gradientTransform="matrix(1 0 0 -1 0 999)">
							<stop  offset="4.122200e-04" style="stop-color:#CCCCCC"/>
							<stop  offset="0.5247" style="stop-color:#B3B3B3"/>
							<stop  offset="0.7671" style="stop-color:#B5B5B5"/>
							<stop  offset="0.891" style="stop-color:#BDBDBD"/>
							<stop  offset="0.988" style="stop-color:#CACACA"/>
							<stop  offset="1" style="stop-color:#CCCCCC"/>
						</linearGradient>
						<path class="st9" d="M569.8,745c0,3.1-1.3,6-3.3,8c-2.1,2.1-4.9,3.3-8,3.3H441.6c-6.3,0-11.3-5.1-11.3-11.4h-0.6v0.8
							c0,6.3,5.1,11.3,11.4,11.3H559c6.3,0,11.4-5.1,11.4-11.3V745H569.8z"/>
					</g>
				</g>
				
					<linearGradient id="SVGID_15_" gradientUnits="userSpaceOnUse" x1="429.7" y1="248.05" x2="570.4" y2="248.05" gradientTransform="matrix(1 0 0 -1 0 999)">
					<stop  offset="4.122200e-04" style="stop-color:#F7F7F7"/>
					<stop  offset="0.5247" style="stop-color:#F8F8F8"/>
					<stop  offset="1" style="stop-color:#F7F7F7"/>
				</linearGradient>
				<path class="st10" d="M569.8,745c0,3.1-1.3,6-3.3,8c-2.1,2.1-4.9,3.3-8,3.3H441.6c-6.3,0-11.3-5.1-11.3-11.4h-0.6v0.8
					c0,6.3,5.1,11.3,11.4,11.3H559c6.3,0,11.4-5.1,11.4-11.3V745H569.8z"/>
			</g>
			
				<linearGradient id="SVGID_16_" gradientUnits="userSpaceOnUse" x1="500" y1="225.4" x2="500" y2="238.4709" gradientTransform="matrix(1 0 0 -1 0 999)">
				<stop  offset="0" style="stop-color:#575757"/>
				<stop  offset="0.7389" style="stop-color:#B9B9B9"/>
				<stop  offset="0.8472" style="stop-color:#B6B6B6"/>
				<stop  offset="0.9363" style="stop-color:#ACACAC"/>
				<stop  offset="1" style="stop-color:#9F9F9F"/>
			</linearGradient>
			<path class="st11" d="M10,760.5c34.5,8.7,70.3,13.1,106.4,13.1H500h383.6c36.1,0,72-4.4,106.4-13.1H500H10z"/>
		</g>
	</g>
</g>
<g>
	<g>
		<defs>
			<rect id="SVGID_17_" x="126.6" y="250.6" width="754.8" height="467"/>
		</defs>
		<clipPath id="SVGID_18_">
			<use xlink:href="#SVGID_17_"  style="overflow:visible;"/>
		</clipPath>
		<g class="st12">
			
				<image style="overflow:visible;" width="400" height="329" xlink:href="../../../../../../../Kynhor/Design/03.02.21/index-1.jpg"  transform="matrix(1.9076 0 0 1.9076 120.16 268.5714)">
			</image>
		</g>
	</g>
</g>
</svg>
