<svg id="Layer_1" data-name="Layer 1" xmlns="http://www.w3.org/2000/svg" viewBox="0 0 250 250"><defs><style>.cls-1{fill:#fff;}</style></defs><title>education</title><path class="cls-1" d="M241.69,81.79,142,33.11c-8.59-4.29-23.2-4.29-31.79,0L8.31,81.79C1.14,85.23,0,90.1,0,92.68s1.14,7.15,8.31,10.88l8.3,4v45.82a14,14,0,0,0-8.88,12.88,14.22,14.22,0,0,0,8.59,12.89l-12.88,41H39.52l-12.89-41a13.87,13.87,0,0,0-.29-25.77V112.44l15.18,7.44v59.57a4.62,4.62,0,0,0,.86,2.57c1.43,1.72,28.06,38.09,82.48,38.09S205.9,183.45,207,182a4.54,4.54,0,0,0,.86-2.57V120.17l33.79-16.61c7.16-3.44,8.31-8.31,8.31-10.88-.29-2.58-1.15-7.45-8.31-10.89M198.74,178c-4.58,5.73-29.21,33.22-73.88,33.22S55.56,183.74,51,178V123.89l59.28,28.35A38.7,38.7,0,0,0,126,155.39c6,0,11.74-1.15,16-3.44l56.7-27.77Zm38.95-82.47-34.37,16.9a3.29,3.29,0,0,0-3.15,1.71L138,144.22c-6,3.15-17.76,3.15-24.06,0L37.51,107.57l87.92-10.31a4.46,4.46,0,1,0-.86-8.88l-101.95,12L12.31,95.54C9.74,94.39,9.16,93,9.16,93c0-.28.58-1.43,3.15-2.58l102-49A29.42,29.42,0,0,1,126,39.12c4.58,0,9.17.86,12,2.3L237.69,90.1c2.57,1.14,3.14,2.29,3.14,2.86a7.83,7.83,0,0,1-3.14,2.58"/></svg>