<svg id="Layer_1" data-name="Layer 1" xmlns="http://www.w3.org/2000/svg" viewBox="0 0 250 250"><defs><style>.cls-1{fill:#fff;}</style></defs><title>retail</title><path class="cls-1" d="M233.84,166.53a3.66,3.66,0,0,0-3.66,3.67v58.38H154.7V159.27a8.56,8.56,0,0,0-8.55-8.54h-42.3a8.56,8.56,0,0,0-8.55,8.54v69.31H19.82V170.2a3.67,3.67,0,1,0-7.33,0v60.09a5.62,5.62,0,0,0,5.62,5.61H231.89a5.62,5.62,0,0,0,5.62-5.61V170.2a3.67,3.67,0,0,0-3.67-3.67M102.63,228.58V159.27a1.22,1.22,0,0,1,1.22-1.22h42.3a1.22,1.22,0,0,1,1.22,1.22v69.31Z"/><path class="cls-1" d="M216.45,214.11a7.81,7.81,0,0,0,7.8-7.8v-40a7.8,7.8,0,0,0-7.8-7.79H171.13a7.8,7.8,0,0,0-7.8,7.79v40a7.81,7.81,0,0,0,7.8,7.8Zm-45.8-7.8v-40a.48.48,0,0,1,.48-.47h45.32a.47.47,0,0,1,.47.47v40a.47.47,0,0,1-.47.48H171.13a.48.48,0,0,1-.48-.48"/><path class="cls-1" d="M78.87,214.11a7.81,7.81,0,0,0,7.8-7.8v-40a7.8,7.8,0,0,0-7.8-7.79H33.55a7.8,7.8,0,0,0-7.8,7.79v40a7.81,7.81,0,0,0,7.8,7.8Zm-45.79-7.8v-40a.47.47,0,0,1,.47-.47H78.87a.48.48,0,0,1,.48.47v40a.48.48,0,0,1-.48.48H33.55a.47.47,0,0,1-.47-.48"/><path class="cls-1" d="M239.24,68.09a7.1,7.1,0,0,1,7.1-7.1A3.66,3.66,0,0,0,250,57.33v-9a3.66,3.66,0,0,0-3.66-3.66H185.88a3.66,3.66,0,1,0,0,7.32h56.79v2.11a14.46,14.46,0,0,0-10.28,10.28H174.77V31.91A17.83,17.83,0,0,0,157,14.1H93.05A17.83,17.83,0,0,0,75.23,31.91v12.8H3.66A3.66,3.66,0,0,0,0,48.37v9A3.66,3.66,0,0,0,3.66,61a7.1,7.1,0,0,1,7.1,7.1,3.66,3.66,0,0,0,1.75,3.12v25H5.92A5.62,5.62,0,0,0,.3,101.84v19.94a5.62,5.62,0,0,0,5.62,5.61h6.59v28.19a3.66,3.66,0,1,0,7.32,0V127.39H230.47v28.19a3.66,3.66,0,1,0,7.32,0V127.39h6.59a5.62,5.62,0,0,0,5.62-5.61V101.84a5.62,5.62,0,0,0-5.62-5.62h-6.59V71a3.66,3.66,0,0,0,1.45-2.91M82.55,31.91a10.51,10.51,0,0,1,10.5-10.49H157a10.51,10.51,0,0,1,10.5,10.49v40A10.5,10.5,0,0,1,157,82.36H93.05a10.5,10.5,0,0,1-10.5-10.49v-40Zm160.12,88.16H7.63V103.55h235ZM19.83,96.22V71.75H64.24a3.67,3.67,0,1,0,0-7.33H17.61A14.46,14.46,0,0,0,7.32,54.14V52h67.9V71.87A17.84,17.84,0,0,0,93.05,89.69H157a17.84,17.84,0,0,0,17.82-17.82v-.12h55.7V96.22Z"/><path class="cls-1" d="M110.84,189.65h-2.93a3.67,3.67,0,0,0,0,7.33h2.93a3.67,3.67,0,0,0,0-7.33"/><path class="cls-1" d="M98.77,36h4.49l4.6,22a9.3,9.3,0,0,0,9.06,7.36h21.75a9.3,9.3,0,0,0,8.66-6l7.18-19a5.88,5.88,0,0,0-5.5-8H118.25a3.67,3.67,0,0,0,0,7.33h28.67l-6.44,17.06a1.94,1.94,0,0,1-1.81,1.25H116.92A2,2,0,0,1,115,56.55l-4.62-22.1a7.25,7.25,0,0,0-7.07-5.74H98.77a3.67,3.67,0,0,0,0,7.33"/><path class="cls-1" d="M117.55,68.48h-1a3.67,3.67,0,1,0,0,7.33h1a3.67,3.67,0,1,0,0-7.33"/><path class="cls-1" d="M133.42,68.48h-1a3.67,3.67,0,1,0,0,7.33h1a3.67,3.67,0,0,0,0-7.33"/></svg>