<svg id="Layer_1" data-name="Layer 1" xmlns="http://www.w3.org/2000/svg" viewBox="0 0 250 250"><defs><style>.cls-1{fill:#ff003c;}.cls-2{fill:#0092ff;}</style></defs><title>Artboard 1 copy 2</title><path class="cls-1" d="M125,0a72.92,72.92,0,1,0,72.91,72.92A73,73,0,0,0,125,0Zm39.45,70.39L150.28,84.92l3.36,20.6a7.79,7.79,0,0,1-7.71,9.06,7.72,7.72,0,0,1-3.78-1L125,104.14l-17.15,9.47a7.81,7.81,0,0,1-11.5-8.09l3.37-20.6L85.56,70.39A7.82,7.82,0,0,1,90,57.21l19.28-3L118,35.75c2.56-5.49,11.57-5.49,14.13,0l8.69,18.51,19.28,3a7.81,7.81,0,0,1,4.41,13.18Z"/><path class="cls-2" d="M62.09,135.21,21.78,207.6a7.9,7.9,0,0,0,.31,8,7.64,7.64,0,0,0,7.19,3.55l32.08-2.4,14.17,28.85A8,8,0,0,0,82.3,250h.21a8,8,0,0,0,6.87-4l26.25-46.66L90.11,154.27a89.16,89.16,0,0,1-28-19.06Z"/><path class="cls-2" d="M228.13,207.6l-40.62-72a87.84,87.84,0,0,1-50,24.9,85.5,85.5,0,0,1-25.94-.1l13,23L159.9,246a7.84,7.84,0,0,0,6.77,4h.21a8.06,8.06,0,0,0,6.88-4.38L188,216.77l32.71,2.5a7.85,7.85,0,0,0,7.39-11.67Z"/></svg>