<?xml version="1.0" encoding="utf-8"?>
<!-- Generator: Adobe Illustrator 24.0.1, SVG Export Plug-In . SVG Version: 6.00 Build 0)  -->
<svg version="1.1" id="Isolation_Mode" xmlns="http://www.w3.org/2000/svg" xmlns:xlink="http://www.w3.org/1999/xlink" x="0px"
	 y="0px" viewBox="0 0 67.1 67.1" style="enable-background:new 0 0 67.1 67.1;" xml:space="preserve">
<style type="text/css">
	.st0{opacity:0.39;}
	.st1{fill:#FFFFFF;}
</style>
<g class="st0">
	<g>
		<path class="st1" d="M3.7,32.5c0.8,0.8,0.8,2.2,0,3c-0.8,0.8-2.2,0.8-3,0c-0.8-0.8-0.8-2.2,0-3C1.5,31.7,2.8,31.7,3.7,32.5z"/>
		<path class="st1" d="M11.6,24.6c0.8,0.8,0.8,2.2,0,3c-0.8,0.8-2.2,0.8-3,0c-0.8-0.8-0.8-2.2,0-3C9.4,23.7,10.8,23.7,11.6,24.6z"/>
		<path class="st1" d="M19.6,16.6c0.8,0.8,0.8,2.2,0,3c-0.8,0.8-2.2,0.8-3,0c-0.8-0.8-0.8-2.2,0-3C17.4,15.7,18.8,15.7,19.6,16.6z"
			/>
		<path class="st1" d="M27.6,8.6c0.8,0.8,0.8,2.2,0,3c-0.8,0.8-2.2,0.8-3,0c-0.8-0.8-0.8-2.2,0-3C25.4,7.8,26.8,7.8,27.6,8.6z"/>
		<path class="st1" d="M35.6,0.6c0.8,0.8,0.8,2.2,0,3c-0.8,0.8-2.2,0.8-3,0c-0.8-0.8-0.8-2.2,0-3C33.4-0.2,34.7-0.2,35.6,0.6z"/>
	</g>
	<g>
		<path class="st1" d="M11.4,40.3c0.8,0.8,0.8,2.2,0,3c-0.8,0.8-2.2,0.8-3,0c-0.8-0.8-0.8-2.2,0-3C9.2,39.4,10.6,39.4,11.4,40.3z"/>
		<path class="st1" d="M19.4,32.3c0.8,0.8,0.8,2.2,0,3c-0.8,0.8-2.2,0.8-3,0c-0.8-0.8-0.8-2.2,0-3C17.2,31.5,18.5,31.5,19.4,32.3z"
			/>
		<path class="st1" d="M27.4,24.3c0.8,0.8,0.8,2.2,0,3c-0.8,0.8-2.2,0.8-3,0c-0.8-0.8-0.8-2.2,0-3C25.2,23.5,26.5,23.5,27.4,24.3z"
			/>
		<path class="st1" d="M35.3,16.3c0.8,0.8,0.8,2.2,0,3c-0.8,0.8-2.2,0.8-3,0c-0.8-0.8-0.8-2.2,0-3C33.1,15.5,34.5,15.5,35.3,16.3z"
			/>
		<path class="st1" d="M43.3,8.4c0.8,0.8,0.8,2.2,0,3c-0.8,0.8-2.2,0.8-3,0c-0.8-0.8-0.8-2.2,0-3C41.1,7.5,42.5,7.5,43.3,8.4z"/>
	</g>
	<g>
		<path class="st1" d="M19.1,48c0.8,0.8,0.8,2.2,0,3c-0.8,0.8-2.2,0.8-3,0c-0.8-0.8-0.8-2.2,0-3C16.9,47.2,18.3,47.2,19.1,48z"/>
		<circle class="st1" cx="25.6" cy="41.5" r="2.1"/>
		<path class="st1" d="M35.1,32c0.8,0.8,0.8,2.2,0,3c-0.8,0.8-2.2,0.8-3,0c-0.8-0.8-0.8-2.2,0-3C32.9,31.2,34.2,31.2,35.1,32z"/>
		<path class="st1" d="M43.1,24.1c0.8,0.8,0.8,2.2,0,3c-0.8,0.8-2.2,0.8-3,0c-0.8-0.8-0.8-2.2,0-3C40.9,23.2,42.2,23.2,43.1,24.1z"
			/>
		<path class="st1" d="M51,16.1c0.8,0.8,0.8,2.2,0,3c-0.8,0.8-2.2,0.8-3,0c-0.8-0.8-0.8-2.2,0-3C48.8,15.2,50.2,15.2,51,16.1z"/>
	</g>
	<g>
		<path class="st1" d="M26.8,55.7c0.8,0.8,0.8,2.2,0,3c-0.8,0.8-2.2,0.8-3,0c-0.8-0.8-0.8-2.2,0-3C24.6,54.9,26,54.9,26.8,55.7z"/>
		<path class="st1" d="M34.8,47.7c0.8,0.8,0.8,2.2,0,3c-0.8,0.8-2.2,0.8-3,0c-0.8-0.8-0.8-2.2,0-3C32.6,46.9,34,46.9,34.8,47.7z"/>
		<path class="st1" d="M42.8,39.8c0.8,0.8,0.8,2.2,0,3c-0.8,0.8-2.2,0.8-3,0c-0.8-0.8-0.8-2.2,0-3C40.6,38.9,42,38.9,42.8,39.8z"/>
		<path class="st1" d="M50.8,31.8c0.8,0.8,0.8,2.2,0,3c-0.8,0.8-2.2,0.8-3,0c-0.8-0.8-0.8-2.2,0-3C48.6,30.9,49.9,30.9,50.8,31.8z"
			/>
		<path class="st1" d="M58.8,23.8c0.8,0.8,0.8,2.2,0,3c-0.8,0.8-2.2,0.8-3,0c-0.8-0.8-0.8-2.2,0-3C56.6,23,57.9,23,58.8,23.8z"/>
	</g>
	<g>
		<path class="st1" d="M34.6,63.4c0.8,0.8,0.8,2.2,0,3c-0.8,0.8-2.2,0.8-3,0c-0.8-0.8-0.8-2.2,0-3C32.4,62.6,33.7,62.6,34.6,63.4z"
			/>
		<path class="st1" d="M42.5,55.5c0.8,0.8,0.8,2.2,0,3c-0.8,0.8-2.2,0.8-3,0c-0.8-0.8-0.8-2.2,0-3C40.3,54.6,41.7,54.6,42.5,55.5z"
			/>
		<path class="st1" d="M50.5,47.5c0.8,0.8,0.8,2.2,0,3c-0.8,0.8-2.2,0.8-3,0c-0.8-0.8-0.8-2.2,0-3C48.3,46.6,49.7,46.6,50.5,47.5z"
			/>
		<path class="st1" d="M58.5,39.5c0.8,0.8,0.8,2.2,0,3c-0.8,0.8-2.2,0.8-3,0c-0.8-0.8-0.8-2.2,0-3C56.3,38.7,57.7,38.7,58.5,39.5z"
			/>
		<path class="st1" d="M66.5,31.5c0.8,0.8,0.8,2.2,0,3c-0.8,0.8-2.2,0.8-3,0c-0.8-0.8-0.8-2.2,0-3C64.3,30.7,65.6,30.7,66.5,31.5z"
			/>
	</g>
</g>
</svg>
