<svg id="Layer_1" data-name="Layer 1" xmlns="http://www.w3.org/2000/svg" viewBox="0 0 500 219"><defs><style>.cls-1{fill:#ff003c;}.cls-2{fill:#0092ff;}.cls-3{font-size:10px;fill:#fff;font-family:Lato-Regular, Lato;}.cls-4{fill:#848484;}</style></defs><title>our-process</title><path class="cls-1" d="M31.8,80.76a1.15,1.15,0,0,1-.82-.34,1.13,1.13,0,0,1-.32-1l1.64-8.22a1.11,1.11,0,0,1,.32-.59L50.69,52.5a3.49,3.49,0,0,1,4.93,0l3.28,3.28a3.49,3.49,0,0,1,0,4.93L40.83,78.78a1.18,1.18,0,0,1-.59.32L32,80.74a.82.82,0,0,1-.22,0M34.51,72l-1.23,6.16,6.16-1.23L57.26,59.06a1.15,1.15,0,0,0,0-1.64L54,54.14a1.15,1.15,0,0,0-1.64,0ZM40,78h0Z"/><path class="cls-2" d="M26.24,73.79H10A5.81,5.81,0,0,1,4.16,68V37.78A5.82,5.82,0,0,1,10,32h4.65a1.16,1.16,0,0,1,0,2.32H10a3.49,3.49,0,0,0-3.48,3.49V68A3.48,3.48,0,0,0,10,71.47H26.24a1.16,1.16,0,1,1,0,2.32"/><path class="cls-2" d="M42.5,52.88a1.16,1.16,0,0,1-1.16-1.16V37.78a3.5,3.5,0,0,0-3.49-3.49H33.21a1.16,1.16,0,0,1,0-2.32h4.64a5.81,5.81,0,0,1,5.81,5.81V51.72a1.16,1.16,0,0,1-1.16,1.16"/><path class="cls-2" d="M30.88,38.94H16.94a3.48,3.48,0,0,1-3.48-3.48V30.81a1.16,1.16,0,0,1,1.16-1.16h3.6a5.81,5.81,0,0,1,11.39,0h3.6a1.16,1.16,0,0,1,1.16,1.16v4.65a3.48,3.48,0,0,1-3.49,3.48m-15.1-7v3.49a1.17,1.17,0,0,0,1.16,1.16H30.88a1.18,1.18,0,0,0,1.17-1.16V32H28.56a1.16,1.16,0,0,1-1.16-1.16,3.49,3.49,0,1,0-7,0A1.16,1.16,0,0,1,19.27,32Z"/><path class="cls-2" d="M35.53,45.91H12.3a1.16,1.16,0,1,1,0-2.32H35.53a1.16,1.16,0,0,1,0,2.32"/><path class="cls-2" d="M35.53,52.88H12.3a1.16,1.16,0,1,1,0-2.32H35.53a1.16,1.16,0,1,1,0,2.32"/><path class="cls-2" d="M35.53,59.85H12.3a1.16,1.16,0,1,1,0-2.32H35.53a1.16,1.16,0,1,1,0,2.32"/><path class="cls-1" d="M110.59,115.23a.93.93,0,0,0-.93.93v9.3a.93.93,0,0,0,.93.93,12.09,12.09,0,0,1,12.08,12.08.93.93,0,0,0,.93.93h9.29a.93.93,0,0,0,.93-.93,23.26,23.26,0,0,0-23.23-23.24m13.91,22.31a14,14,0,0,0-13-13v-7.45a21.4,21.4,0,0,1,20.42,20.43Z"/><path class="cls-2" d="M118.59,162.59a23.21,23.21,0,0,0,10.58-19.47.92.92,0,0,0-.93-.93H119a.93.93,0,0,0-.93.93A12.08,12.08,0,1,1,105.94,131a.93.93,0,0,0,.93-.93v-9.29a.93.93,0,0,0-.93-.93,23.2,23.2,0,0,0-14.84,5.37l-3.19-2.4a.94.94,0,0,0-.56-.18H78.06v1.86h9l2.66,2a23.22,23.22,0,0,0,3.16,35.79l-2.17,2.18H78.06v1.86h13a1,1,0,0,0,.66-.27l2.75-2.76a23.21,23.21,0,0,0,22.38.3l3.39,2.54a1,1,0,0,0,.56.19h12.08v-1.86H121.12ZM119.85,144h7.45a21.42,21.42,0,0,1-20.43,20.43V157a14,14,0,0,0,13-13M105,121.76v7.45a14,14,0,0,0-13,13H84.59A21.39,21.39,0,0,1,105,121.76M84.59,144H92a14,14,0,0,0,13,13v7.45A21.4,21.4,0,0,1,84.59,144"/><path class="cls-1" d="M114.3,146.83V132a.93.93,0,0,0-.93-.93h-3.71a.93.93,0,0,0-.93.93v1.86h-2.79a.93.93,0,0,0-.93.93v2.79h-2.79a.93.93,0,0,0-.93.93v1.86H98.5a.92.92,0,0,0-.92.93v5.57a.92.92,0,0,0,.92.93h14.87a.92.92,0,0,0,.93-.93m-14.87-4.64h1.86v3.71H99.43Zm3.72-2.79H105v6.5h-1.86Zm3.72-3.72h1.86V145.9h-1.86Zm5.58,10.22h-1.86v-13h1.86Z"/><rect class="cls-1" x="103.15" y="148.69" width="1.86" height="1.86"/><rect class="cls-1" x="99.43" y="148.69" width="1.86" height="1.86"/><rect class="cls-1" x="106.87" y="148.69" width="1.86" height="1.86"/><rect class="cls-1" x="110.59" y="148.69" width="1.86" height="1.86"/><path class="cls-2" d="M222.34,78.58l-8.09-11.69a.91.91,0,0,0-1.26-.23,1,1,0,0,0-.22.23l-8.1,11.69a.91.91,0,0,0-.11.8l2.3,6.91h-.55a.9.9,0,0,0-.9.9v2.7a.9.9,0,0,0,.9.9h.9v9.89a.9.9,0,0,0,.9.9H218.9a.9.9,0,0,0,.9-.9V90.79h.9a.9.9,0,0,0,.9-.9v-2.7a.9.9,0,0,0-.9-.9h-.55l2.3-6.91a.91.91,0,0,0-.11-.8m-8.83-1.28a.9.9,0,1,1-.9.9.9.9,0,0,1,.9-.9M218,99.78h-9v-9h9ZM219.8,89H207.21v-.9H219.8Zm-1.55-2.7h-9.49l-2.35-7.05,6.2-9V75.5a.76.76,0,0,0,0,.15,2.69,2.69,0,1,0,1.77,0c0-.05,0-.1,0-.15V70.28l6.2,9Z"/><path class="cls-1" d="M240.49,55.71h-3.6a.9.9,0,0,0-.9.9v.91H216.2v-.9a.9.9,0,0,0-.9-.9h-.89v-4.5h.89a.9.9,0,0,0,.9-.9V46.72a.9.9,0,0,0-.9-.9h-3.59a.9.9,0,0,0-.9.9v3.59a.9.9,0,0,0,.9.9h.9v4.5h-.9a.9.9,0,0,0-.9.9v.9H191v-.9a.9.9,0,0,0-.9-.9h-3.6a.9.9,0,0,0-.9.9v3.6a.91.91,0,0,0,.9.9h3.6a.9.9,0,0,0,.9-.9v-.9h14.87a13.78,13.78,0,0,0-3.15,2.85,15.64,15.64,0,0,0-3.62,9.74h-.9a.9.9,0,0,0-.9.9v3.6a.9.9,0,0,0,.9.9h3.59a.9.9,0,0,0,.9-.9V72.8a.9.9,0,0,0-.9-.9h-.9c0-6.67,5.14-11.93,9.9-12.53v.84a.9.9,0,0,0,.9.9h3.59a.9.9,0,0,0,.9-.9v-.85a10.1,10.1,0,0,1,6.66,4.19,15.81,15.81,0,0,1,3.21,8.35h-.87a.9.9,0,0,0-.9.9v3.6a.9.9,0,0,0,.9.9h3.6a.9.9,0,0,0,.89-.9V72.8a.89.89,0,0,0-.89-.9h-.93a17.46,17.46,0,0,0-3.58-9.46A14.47,14.47,0,0,0,221,59.31h15v.91a.9.9,0,0,0,.9.9h3.6a.91.91,0,0,0,.9-.9v-3.6a.9.9,0,0,0-.9-.9m-51.27,3.6h-1.8v-1.8h1.8ZM200.91,75.5h-1.79V73.7h1.79Zm11.7-27.88h1.8v1.79h-1.8Zm1.8,11.69h-1.8v-1.8h1.8ZM226.1,73.7h1.8v1.8h-1.8Zm13.49-14.39h-1.8v-1.8h1.8Z"/><path class="cls-1" d="M307.93,178.66a.88.88,0,0,1-.59-.22l-6-5.07a.92.92,0,0,1-.32-.7,1,1,0,0,1,.32-.71l6-5.07a.92.92,0,0,1,1.19,1.4l-5.13,4.38,5.13,4.37a.92.92,0,0,1-.6,1.62"/><path class="cls-1" d="M307.93,178.82a1.08,1.08,0,0,1-.7-.26l-6-5.07a1.09,1.09,0,0,1,0-1.65l6-5.07a1.09,1.09,0,0,1,1.41,1.65l-5,4.24,5,4.25a1.09,1.09,0,0,1,.12,1.53A1.1,1.1,0,0,1,307.93,178.82Zm0-12a.75.75,0,0,0-.49.19l-5.95,5.07a.75.75,0,0,0,0,1.15l5.95,5.07a.74.74,0,0,0,1.07-.08.76.76,0,0,0-.09-1.07l-5.27-4.5,5.27-4.49a.76.76,0,0,0,.09-1.07.73.73,0,0,0-.52-.26Z"/><path class="cls-1" d="M319.69,178.66a.92.92,0,0,1-.59-1.62l5.13-4.37-5.13-4.38a.92.92,0,1,1,1.19-1.4l6,5.07a.94.94,0,0,1,0,1.41l-6,5.07a.89.89,0,0,1-.6.22"/><path class="cls-1" d="M319.69,178.82a1.09,1.09,0,0,1-.7-1.91l5-4.25-5-4.24a1.09,1.09,0,0,1-.12-1.53,1.08,1.08,0,0,1,1.53-.12l6,5.07a1.09,1.09,0,0,1,0,1.65l-6,5.07A1.09,1.09,0,0,1,319.69,178.82Zm0-12h-.06a.73.73,0,0,0-.51.26.77.77,0,0,0,.08,1.07l5.28,4.49-5.28,4.5a.77.77,0,0,0-.08,1.07.74.74,0,0,0,.57.27.73.73,0,0,0,.49-.19l6-5.07a.75.75,0,0,0,0-1.15l-6-5.07A.73.73,0,0,0,319.69,166.83Z"/><path class="cls-1" d="M311.71,182.46a.68.68,0,0,1-.2,0,.93.93,0,0,1-.71-1.09l3.72-17.62a.92.92,0,0,1,1.09-.72.94.94,0,0,1,.71,1.09l-3.71,17.63a.93.93,0,0,1-.9.73"/><path class="cls-1" d="M311.71,182.63a.91.91,0,0,1-.23,0,1.09,1.09,0,0,1-.84-1.28l3.72-17.63a1.08,1.08,0,0,1,1.28-.84,1.1,1.1,0,0,1,.84,1.29l-3.71,17.63A1.1,1.1,0,0,1,311.71,182.63Zm3.71-19.47a.75.75,0,0,0-.74.6L311,181.39a.75.75,0,0,0,.59.89.76.76,0,0,0,.9-.58l3.71-17.63a.77.77,0,0,0-.59-.9Z"/><path class="cls-2" d="M335.51,192.07h-43.4a6.2,6.2,0,0,1-6.18-6.18V149.05a6.19,6.19,0,0,1,6.18-6.18h43.4a6.19,6.19,0,0,1,6.19,6.18v36.84a6.2,6.2,0,0,1-6.19,6.18m-43.4-47.36a4.35,4.35,0,0,0-4.34,4.34v36.84a4.35,4.35,0,0,0,4.34,4.34h43.4a4.34,4.34,0,0,0,4.34-4.34V149.05a4.34,4.34,0,0,0-4.34-4.34Z"/><path class="cls-2" d="M335.51,192.23h-43.4a6.35,6.35,0,0,1-6.34-6.34V149.05a6.36,6.36,0,0,1,6.34-6.35h43.4a6.36,6.36,0,0,1,6.35,6.35v36.84A6.36,6.36,0,0,1,335.51,192.23ZM292.11,143a6,6,0,0,0-6,6v36.84a6,6,0,0,0,6,6h43.4a6,6,0,0,0,6-6V149.05a6,6,0,0,0-6-6Zm43.4,47.36h-43.4a4.51,4.51,0,0,1-4.5-4.5V149.05a4.51,4.51,0,0,1,4.5-4.5h43.4a4.51,4.51,0,0,1,4.51,4.5v36.84A4.51,4.51,0,0,1,335.51,190.39Zm-43.4-45.52a4.18,4.18,0,0,0-4.17,4.18v36.84a4.17,4.17,0,0,0,4.17,4.17h43.4a4.18,4.18,0,0,0,4.18-4.17V149.05a4.18,4.18,0,0,0-4.18-4.18Z"/><path class="cls-2" d="M340.77,157.61H286.85a.92.92,0,0,1,0-1.84h53.92a.92.92,0,1,1,0,1.84"/><path class="cls-2" d="M340.77,157.77H286.85a1.08,1.08,0,0,1,0-2.16h53.92a1.08,1.08,0,1,1,0,2.16Zm-53.92-1.84a.76.76,0,0,0,0,1.52h53.92a.76.76,0,0,0,0-1.52Z"/><path class="cls-1" d="M301.66,153.21a2.92,2.92,0,1,1,2.92-2.92,2.92,2.92,0,0,1-2.92,2.92m0-4a1.07,1.07,0,1,0,1.07,1.07,1.07,1.07,0,0,0-1.07-1.07"/><path class="cls-1" d="M301.66,153.37a3.08,3.08,0,1,1,3.08-3.08A3.09,3.09,0,0,1,301.66,153.37Zm0-5.83a2.75,2.75,0,1,0,2.75,2.75A2.76,2.76,0,0,0,301.66,147.54Zm0,4a1.24,1.24,0,1,1,1.24-1.24A1.24,1.24,0,0,1,301.66,151.53Zm0-2.15a.91.91,0,1,0,.91.91A.91.91,0,0,0,301.66,149.38Z"/><path class="cls-1" d="M292.71,153.18a2.92,2.92,0,1,1,2.91-2.92,2.91,2.91,0,0,1-2.91,2.92m0-4a1.08,1.08,0,1,0,1.07,1.07,1.07,1.07,0,0,0-1.07-1.07"/><path class="cls-1" d="M292.71,153.34a3.08,3.08,0,1,1,3.08-3.08A3.08,3.08,0,0,1,292.71,153.34Zm0-5.83a2.75,2.75,0,1,0,2.75,2.75A2.75,2.75,0,0,0,292.71,147.51Zm0,4a1.24,1.24,0,1,1,1.24-1.24A1.24,1.24,0,0,1,292.71,151.5Zm0-2.15a.91.91,0,1,0,.91.91A.91.91,0,0,0,292.71,149.35Z"/><path class="cls-1" d="M310.61,153.23a2.91,2.91,0,1,1,2.92-2.91,2.91,2.91,0,0,1-2.92,2.91m0-4a1.07,1.07,0,1,0,1.08,1.07,1.07,1.07,0,0,0-1.08-1.07"/><path class="cls-1" d="M310.61,153.4a3.08,3.08,0,1,1,3.08-3.08A3.08,3.08,0,0,1,310.61,153.4Zm0-5.83a2.75,2.75,0,1,0,2.75,2.75A2.75,2.75,0,0,0,310.61,147.57Zm0,4a1.24,1.24,0,1,1,1.24-1.24A1.24,1.24,0,0,1,310.61,151.56Zm0-2.15a.91.91,0,1,0,.91.91A.91.91,0,0,0,310.61,149.41Z"/><path class="cls-2" d="M426.08,55.77H372.64a1.17,1.17,0,0,1,0-2.33h53.44a1.17,1.17,0,0,1,0,2.33"/><path class="cls-2" d="M421.43,55.77a1.16,1.16,0,0,1-1.16-1.16V33.69a1.16,1.16,0,1,1,2.32,0V54.61a1.16,1.16,0,0,1-1.16,1.16"/><path class="cls-2" d="M377.29,55.77a1.16,1.16,0,0,1-1.16-1.16V27.89a4.65,4.65,0,0,1,4.64-4.65h8.13a1.16,1.16,0,1,1,0,2.32h-8.13a2.33,2.33,0,0,0-2.32,2.33V54.61a1.16,1.16,0,0,1-1.16,1.16"/><path class="cls-1" d="M406.93,39.13a1.2,1.2,0,0,1-.82-.34l-8.36-8.36a1.16,1.16,0,0,1,0-1.6l6.85-7.6c4.86-5.61,12.57-9.49,19.17-9.61a1.07,1.07,0,0,1,.85.34,1.17,1.17,0,0,1,.34.84c-.13,6.61-4,14.32-9.63,19.2l-7.58,6.83a1.16,1.16,0,0,1-.78.3m-6.75-9.56,6.79,6.8,6.79-6.11c4.82-4.18,8.23-10.55,8.76-16.24-5.68.54-12.06,3.94-16.22,8.75Z"/><path class="cls-1" d="M410.05,44.64a1.12,1.12,0,0,1-.31,0,1.15,1.15,0,0,1-.82-.84l-1.64-6.86a1.16,1.16,0,1,1,2.26-.54l1.09,4.55c2-3.16,2.42-7.2,2.47-9.56a1.15,1.15,0,0,1,1.18-1.14,1.16,1.16,0,0,1,1.14,1.18c-.1,5.5-1.71,10.08-4.54,12.92a1.19,1.19,0,0,1-.83.34"/><path class="cls-1" d="M399.91,29.29a.82.82,0,0,1-.26,0l-6.86-1.64a1.16,1.16,0,0,1-.55-1.95c2.83-2.83,7.42-4.44,12.92-4.54a1.14,1.14,0,0,1,1.18,1.14,1.16,1.16,0,0,1-1.14,1.18c-2.37,0-6.41.45-9.56,2.47L400.19,27a1.16,1.16,0,0,1,.86,1.4,1.17,1.17,0,0,1-1.14.89"/><path class="cls-1" d="M391.22,46.47a1.13,1.13,0,0,1-.82-.34,1.16,1.16,0,0,1-.29-1.15c.38-1.28,2.38-7.76,3.94-9.32a4.83,4.83,0,1,1,6.82,6.83c-1.56,1.56-8,3.55-9.31,3.94a1.27,1.27,0,0,1-.34,0m6.24-9.9a2.53,2.53,0,0,0-1.77.73c-.66.66-1.79,3.57-2.68,6.22,2.65-.89,5.57-2,6.22-2.68a2.5,2.5,0,0,0,0-3.54,2.53,2.53,0,0,0-1.77-.73m2.59,5.1h0Z"/><path class="cls-2" d="M499.5,161.16a3.73,3.73,0,0,0-5.1-1.37h0l-9.11,5.26a3.68,3.68,0,0,0-2.11-1.52l-13.94-3.74a6.51,6.51,0,0,0-3.28,0l-4.9,1.23v-1.6a.94.94,0,0,0-.94-.94h-7.47a.94.94,0,0,0-.94.94v.93h-6.54a.93.93,0,0,0-.93.93v13.09a.93.93,0,0,0,.93.93h6.54v.93a.94.94,0,0,0,.94.94h7.47a.94.94,0,0,0,.94-.94v-1.29l1.2.6a6.46,6.46,0,0,0,2.92.69h14a6.56,6.56,0,0,0,3.27-.87l15.7-9.07a3.74,3.74,0,0,0,1.36-5.1m-53.39,1h5.6V173.4h-5.6Zm13.08,13.08h-5.61v-15h5.61Zm38-10.62-15.69,9.06a4.69,4.69,0,0,1-2.34.63h-14a4.75,4.75,0,0,1-2.09-.49l-2-1v-9.9l5.35-1.34a4.79,4.79,0,0,1,2.35,0l13.94,3.74a1.87,1.87,0,0,1-.9,3.62h-.07l-11.14-3a1,1,0,0,0-1.15.66.94.94,0,0,0,.66,1.14l11.14,3a3.62,3.62,0,0,0,1,.13,3.69,3.69,0,0,0,3.72-3.66c0-.13,0-.25,0-.37l9.41-5.43a1.87,1.87,0,0,1,1.87,3.23"/><path class="cls-1" d="M469.47,148.17H473a3.52,3.52,0,0,0,.16.39l-2.48,2.49a.92.92,0,0,0,0,1.32l4,4a.94.94,0,0,0,1.32,0l2.48-2.48.39.16v3.51a.94.94,0,0,0,.94.93h5.6a.94.94,0,0,0,.94-.93V154l.39-.16,2.48,2.48a1,1,0,0,0,1.32,0l4-4a.92.92,0,0,0,0-1.32L492,148.56a3.52,3.52,0,0,0,.16-.39h3.51a.92.92,0,0,0,.93-.93v-5.61a.93.93,0,0,0-.93-.93h-3.51a3.52,3.52,0,0,0-.16-.39l2.48-2.48a.92.92,0,0,0,0-1.32l-4-4a.92.92,0,0,0-1.32,0L486.68,135l-.39-.17v-3.5a.94.94,0,0,0-.94-.94h-5.6a.94.94,0,0,0-.94.94v3.5l-.39.17-2.48-2.48a.94.94,0,0,0-1.32,0l-4,4a.92.92,0,0,0,0,1.32l2.48,2.48a3.52,3.52,0,0,0-.16.39h-3.51a.94.94,0,0,0-.94.93v5.61a.93.93,0,0,0,.94.93m.93-5.6h3.24a.94.94,0,0,0,.89-.65,7.25,7.25,0,0,1,.56-1.35.92.92,0,0,0-.16-1.11l-2.28-2.29,2.63-2.64,2.3,2.29a.94.94,0,0,0,1.11.16,8,8,0,0,1,1.35-.57.93.93,0,0,0,.64-.89v-3.23h3.74v3.23a.92.92,0,0,0,.65.89,8.4,8.4,0,0,1,1.35.57.94.94,0,0,0,1.11-.16l2.29-2.29,2.64,2.64-2.29,2.29a.92.92,0,0,0-.16,1.11,7.25,7.25,0,0,1,.56,1.35.94.94,0,0,0,.89.65h3.24v3.73h-3.24a1,1,0,0,0-.89.65,7.25,7.25,0,0,1-.56,1.35.92.92,0,0,0,.16,1.11l2.29,2.3-2.64,2.64-2.29-2.3a.94.94,0,0,0-1.11-.15,7.54,7.54,0,0,1-1.35.56.93.93,0,0,0-.65.89v3.23h-3.74v-3.23a.93.93,0,0,0-.65-.89,7.54,7.54,0,0,1-1.35-.56.94.94,0,0,0-1.11.15l-2.29,2.3-2.63-2.64,2.29-2.3a1,1,0,0,0,.16-1.11,7.29,7.29,0,0,1-.57-1.35,1,1,0,0,0-.89-.65H470.4Z"/><path class="cls-1" d="M482.55,150a5.61,5.61,0,1,1,5.6-5.6,5.61,5.61,0,0,1-5.6,5.6m0-9.34a3.74,3.74,0,1,0,3.73,3.74,3.73,3.73,0,0,0-3.73-3.74"/><text class="cls-3" transform="translate(8.41 100.48)">Getting<tspan x="-8.42" y="12">Client Brief</tspan></text><path class="cls-4" d="M89.29,110.26a1,1,0,0,0,1.2-1.21,69.75,69.75,0,0,0-6.31-15.84,1,1,0,0,0-1.84.23,18.88,18.88,0,0,0-.06,5.91c-7.8-8.27-15-17.68-24.86-23.71-.68-.46-1.55.63-.91,1.15C65.75,84,73.1,92.92,81.19,101.24c-1.83.12-3.67.23-5.45.29a1,1,0,0,0-.69,1.72A39.36,39.36,0,0,0,89.29,110.26Zm-6.2-7.47a1,1,0,0,0,.92-1.72l-.12-.11c0-1.38-.06-2.7,0-4.14a73.79,73.79,0,0,1,4.19,11,36.09,36.09,0,0,1-9.47-4.54c1.21,0,2.47-.17,3.73-.17A.6.6,0,0,0,83.09,102.79Z"/><path class="cls-4" d="M187.3,107.23a1,1,0,0,0-1-1.36A70.18,70.18,0,0,0,169.71,110a1,1,0,0,0,0,1.85,18.51,18.51,0,0,0,5.85.87c-9.25,6.6-19.57,12.49-26.88,21.39-.55.62.42,1.62,1,1.07C158,127,167.91,120.9,177.26,114c-.13,1.84-.27,3.68-.46,5.45a1,1,0,0,0,1.61.91A39.24,39.24,0,0,0,187.3,107.23Zm-8.24,5.12a1,1,0,0,0-1.58-1.15l-.13.1c-1.37-.19-2.69-.31-4.1-.56a74.48,74.48,0,0,1,11.44-2.66,36.26,36.26,0,0,1-5.79,8.77c.11-1.2.17-2.47.34-3.72A.6.6,0,0,0,179.06,112.35Z"/><text class="cls-3" transform="translate(85.65 186.13)">Research</text><text class="cls-3" transform="translate(198.34 121.88)">Design</text><text class="cls-3" transform="translate(302.44 129.88)">Build</text><text class="cls-3" transform="translate(383.58 74.4)">Launch</text><text class="cls-3" transform="translate(454.51 196.4)">Support</text><path class="cls-4" d="M356.37,77.39a1,1,0,0,0-1.36-1,70.13,70.13,0,0,0-14.81,8.46,1,1,0,0,0,.48,1.79,18.42,18.42,0,0,0,5.87-.77c-7.1,8.89-15.41,17.37-20,27.93-.35.75.85,1.45,1.27.75,5.81-10.15,13.65-18.68,20.77-27.86.37,1.8.74,3.6,1,5.36a1,1,0,0,0,1.8.44A39.17,39.17,0,0,0,356.37,77.39Zm-6.52,7.18a1,1,0,0,0-1.84-.66l-.1.13c-1.36.19-2.66.43-4.09.57a74.91,74.91,0,0,1,10.27-5.68,35.72,35.72,0,0,1-3.16,10c-.23-1.18-.52-2.42-.7-3.67A.61.61,0,0,0,349.85,84.57Z"/><path class="cls-4" d="M266.84,142.54a1,1,0,0,0-1.66.84c.1,1.77.14,3.62.18,5.46-9-7.35-18.55-13.9-26.49-22.49-.57-.58-1.59.37-1.07,1,6.85,9.26,16.86,15.65,25.77,22.72a18.42,18.42,0,0,0-5.89.56,1,1,0,0,0-.07,1.85A70.27,70.27,0,0,0,274,157.43a1,1,0,0,0,1.09-1.31A39.41,39.41,0,0,0,266.84,142.54Zm.45,7.28c-.11-1.26-.1-2.53-.15-3.73a35.79,35.79,0,0,1,5.34,9,74.61,74.61,0,0,1-11.29-3.22c1.43-.19,2.75-.24,4.12-.36l.13.1a1,1,0,0,0,1.63-1.06A.6.6,0,0,0,267.29,149.82Z"/><path class="cls-4" d="M456.12,128.08A1,1,0,0,0,457.4,127a70.14,70.14,0,0,0-5.31-16.21,1,1,0,0,0-1.85.11,18.78,18.78,0,0,0-.43,5.9c-7.27-8.74-13.9-18.59-23.32-25.22-.66-.5-1.59.53-1,1.09,8.78,7.74,15.55,17.14,23.11,26-1.84,0-3.68,0-5.46-.06a1,1,0,0,0-.8,1.68A39.3,39.3,0,0,0,456.12,128.08Zm-5.72-7.84a1,1,0,0,0,1-1.66l-.11-.12c.08-1.38.11-2.7.26-4.13a75.41,75.41,0,0,1,3.49,11.21,36,36,0,0,1-9.17-5.12c1.21,0,2.48,0,3.74.06A.6.6,0,0,0,450.4,120.24Z"/></svg>