<svg id="Layer_1" data-name="Layer 1" xmlns="http://www.w3.org/2000/svg" viewBox="0 0 219 500"><defs><style>.cls-1{fill:#ff003c;}.cls-2{fill:#0092ff;}.cls-3{font-size:10px;fill:#fff;font-family:Lato-Regular, Lato;}.cls-4{fill:#848484;}</style></defs><title>our-process copy</title><path class="cls-1" d="M35,55.76a1.17,1.17,0,0,1-.82-.34,1.18,1.18,0,0,1-.32-1l1.65-8.22a1.09,1.09,0,0,1,.31-.59L53.87,27.5a3.48,3.48,0,0,1,4.92,0l3.29,3.28a3.49,3.49,0,0,1,0,4.93L44,53.78a1.21,1.21,0,0,1-.6.32L35.2,55.74a.86.86,0,0,1-.23,0M37.69,47l-1.23,6.16,6.16-1.23L60.44,34.06a1.16,1.16,0,0,0,0-1.64l-3.29-3.28a1.15,1.15,0,0,0-1.64,0Zm5.5,6h0Z"/><path class="cls-2" d="M29.41,48.79H13.15A5.81,5.81,0,0,1,7.34,43V12.78A5.81,5.81,0,0,1,13.15,7h4.64a1.16,1.16,0,1,1,0,2.32H13.15a3.5,3.5,0,0,0-3.49,3.49V43a3.49,3.49,0,0,0,3.49,3.49H29.41a1.16,1.16,0,0,1,0,2.32"/><path class="cls-2" d="M45.68,27.88a1.16,1.16,0,0,1-1.17-1.16V12.78A3.49,3.49,0,0,0,41,9.29H36.38a1.16,1.16,0,1,1,0-2.32H41a5.82,5.82,0,0,1,5.81,5.81V26.72a1.16,1.16,0,0,1-1.16,1.16"/><path class="cls-2" d="M34.06,13.94H20.12a3.49,3.49,0,0,1-3.49-3.48V5.81A1.16,1.16,0,0,1,17.8,4.65h3.6a5.81,5.81,0,0,1,11.38,0h3.6a1.16,1.16,0,0,1,1.16,1.16v4.65a3.48,3.48,0,0,1-3.48,3.48M19,7v3.49a1.17,1.17,0,0,0,1.16,1.16H34.06a1.17,1.17,0,0,0,1.16-1.16V7H31.74a1.16,1.16,0,0,1-1.17-1.16,3.49,3.49,0,1,0-7,0A1.16,1.16,0,0,1,22.44,7Z"/><path class="cls-2" d="M38.71,20.91H15.47a1.16,1.16,0,1,1,0-2.32H38.71a1.16,1.16,0,0,1,0,2.32"/><path class="cls-2" d="M38.71,27.88H15.47a1.16,1.16,0,1,1,0-2.32H38.71a1.16,1.16,0,0,1,0,2.32"/><path class="cls-2" d="M38.71,34.85H15.47a1.16,1.16,0,1,1,0-2.32H38.71a1.16,1.16,0,0,1,0,2.32"/><text class="cls-3" transform="translate(18.58 75.48)">Getting<tspan x="-8.42" y="12">Client Brief</tspan></text><path class="cls-4" d="M129.39,90.29a1,1,0,0,0,.94-1.42A69.85,69.85,0,0,0,121,74.61a1,1,0,0,0-1.75.6,18.26,18.26,0,0,0,1.13,5.8c-9.31-6.53-18.29-14.3-29.12-18.23-.76-.31-1.39.93-.67,1.31,10.5,5.17,19.5,12.47,29.1,19-1.77.48-3.55,1-5.28,1.37a1,1,0,0,0-.33,1.83A39.22,39.22,0,0,0,129.39,90.29Zm-7.57-6.07a1,1,0,0,0,.55-1.87l-.13-.09c-.28-1.35-.6-2.63-.83-4.05a75.08,75.08,0,0,1,6.31,9.9,35.84,35.84,0,0,1-10.2-2.54c1.17-.29,2.39-.66,3.63-.91A.61.61,0,0,0,121.82,84.22Z"/><path class="cls-4" d="M101.61,172.48a1,1,0,0,0,1,1.36,70.18,70.18,0,0,0,16.56-4.09,1,1,0,0,0,0-1.85,18.47,18.47,0,0,0-5.85-.87c9.26-6.6,19.57-12.49,26.88-21.39.55-.62-.41-1.62-1-1.07-8.37,8.18-18.24,14.24-27.59,21.12.13-1.83.27-3.67.46-5.44a1,1,0,0,0-1.62-.92A39.35,39.35,0,0,0,101.61,172.48Zm8.24-5.12a1,1,0,0,0,1.58,1.15l.13-.1c1.37.18,2.68.31,4.1.56a74.48,74.48,0,0,1-11.44,2.66,36,36,0,0,1,5.79-8.77c-.11,1.2-.17,2.47-.34,3.72A.6.6,0,0,0,109.85,167.36Z"/><path class="cls-1" d="M188.43,81.73a.93.93,0,0,0-.93.93V92a.93.93,0,0,0,.93.93A12.09,12.09,0,0,1,200.51,105a.93.93,0,0,0,.93.93h9.29a.93.93,0,0,0,.93-.93,23.26,23.26,0,0,0-23.23-23.24M202.34,104a14,14,0,0,0-13-13V83.61A21.41,21.41,0,0,1,209.78,104Z"/><path class="cls-2" d="M196.43,129.09A23.21,23.21,0,0,0,207,109.62a.92.92,0,0,0-.93-.93h-9.29a.93.93,0,0,0-.93.93,12.08,12.08,0,1,1-12.08-12.09.93.93,0,0,0,.93-.93V87.31a.93.93,0,0,0-.93-.93,23.2,23.2,0,0,0-14.84,5.37l-3.19-2.4a.94.94,0,0,0-.56-.18H155.9V91h9l2.66,2a23.22,23.22,0,0,0,3.16,35.79L168.52,131H155.9v1.86h13a1,1,0,0,0,.66-.27l2.75-2.76a23.21,23.21,0,0,0,22.38.3l3.39,2.54a1,1,0,0,0,.56.19h12.08V131H199Zm1.26-18.55h7.44A21.4,21.4,0,0,1,184.71,131v-7.45a14,14,0,0,0,13-13M182.85,88.26v7.45a14,14,0,0,0-13,13h-7.45a21.41,21.41,0,0,1,20.43-20.43m-20.43,22.28h7.45a14,14,0,0,0,13,13V131a21.42,21.42,0,0,1-20.43-20.43"/><path class="cls-1" d="M192.14,113.33V98.46a.93.93,0,0,0-.93-.93H187.5a.93.93,0,0,0-.93.93v1.86h-2.79a.93.93,0,0,0-.93.93V104h-2.79a.93.93,0,0,0-.93.93v1.86h-2.79a.93.93,0,0,0-.93.93v5.57a.93.93,0,0,0,.93.93h14.87a.92.92,0,0,0,.93-.93m-14.87-4.64h1.86v3.71h-1.86ZM181,105.9h1.86v6.5H181Zm3.72-3.72h1.86V112.4h-1.86Zm5.57,10.22h-1.85v-13h1.85Z"/><rect class="cls-1" x="180.99" y="115.19" width="1.86" height="1.86"/><rect class="cls-1" x="177.27" y="115.19" width="1.86" height="1.86"/><rect class="cls-1" x="184.71" y="115.19" width="1.86" height="1.86"/><rect class="cls-1" x="188.43" y="115.19" width="1.86" height="1.86"/><text class="cls-3" transform="translate(163.48 151.63)">Research</text><path class="cls-2" d="M61.18,184.08l-8.1-11.69a.9.9,0,0,0-1.25-.23,1,1,0,0,0-.23.23l-8.09,11.69a.91.91,0,0,0-.11.8l2.3,6.91h-.55a.9.9,0,0,0-.9.9v2.7a.9.9,0,0,0,.9.9h.9v9.89a.9.9,0,0,0,.9.9H57.74a.9.9,0,0,0,.9-.9v-9.89h.9a.9.9,0,0,0,.9-.9v-2.7a.9.9,0,0,0-.9-.9H59l2.3-6.91a.91.91,0,0,0-.11-.8m-8.83-1.28a.9.9,0,1,1-.9.9.89.89,0,0,1,.9-.9m4.49,22.48h-9v-9h9Zm1.8-10.79H46.05v-.9H58.64Zm-1.55-2.7H47.6l-2.35-7,6.2-9V181a.76.76,0,0,0,0,.15,2.69,2.69,0,1,0,1.77,0,.76.76,0,0,0,0-.15v-5.22l6.2,9Z"/><path class="cls-1" d="M79.33,161.21h-3.6a.9.9,0,0,0-.9.9V163H55v-.9a.9.9,0,0,0-.9-.9h-.9v-4.5h.9a.9.9,0,0,0,.9-.9v-3.59a.9.9,0,0,0-.9-.9H50.55a.9.9,0,0,0-.9.9v3.59a.9.9,0,0,0,.9.9h.9v4.5h-.9a.9.9,0,0,0-.9.9v.9H29.86v-.9a.9.9,0,0,0-.9-.9h-3.6a.9.9,0,0,0-.9.9v3.6a.91.91,0,0,0,.9.9H29a.9.9,0,0,0,.9-.9v-.9H44.73a13.78,13.78,0,0,0-3.15,2.85A15.65,15.65,0,0,0,38,177.4h-.89a.9.9,0,0,0-.9.9v3.6a.9.9,0,0,0,.9.9h3.59a.9.9,0,0,0,.9-.9v-3.6a.9.9,0,0,0-.9-.9h-.9c0-6.67,5.13-11.93,9.9-12.53v.84a.9.9,0,0,0,.9.9h3.59a.9.9,0,0,0,.9-.9v-.85a10.1,10.1,0,0,1,6.66,4.19,15.81,15.81,0,0,1,3.21,8.35H64a.9.9,0,0,0-.9.9v3.6a.9.9,0,0,0,.9.9h3.59a.9.9,0,0,0,.9-.9v-3.6a.9.9,0,0,0-.9-.9h-.92a17.39,17.39,0,0,0-3.59-9.46,14.22,14.22,0,0,0-3.3-3.13h15v.91a.9.9,0,0,0,.9.9h3.6a.91.91,0,0,0,.9-.9v-3.6a.9.9,0,0,0-.9-.9m-51.27,3.6h-1.8V163h1.8ZM39.75,181H38v-1.8h1.8Zm11.7-27.88h1.79v1.79H51.45Zm1.79,11.69H51.45V163h1.79Zm11.7,14.39h1.8V181h-1.8Zm13.49-14.39h-1.8V163h1.8Z"/><text class="cls-3" transform="translate(37.18 226.38)">Design</text><path class="cls-1" d="M157.77,273.16a.88.88,0,0,1-.59-.22l-6-5.07a.94.94,0,0,1,0-1.41l6-5.07a.92.92,0,0,1,1.19,1.4l-5.13,4.38,5.13,4.37a.92.92,0,0,1-.6,1.62"/><path class="cls-1" d="M157.77,273.32a1.08,1.08,0,0,1-.7-.26l-6-5.07a1.09,1.09,0,0,1,0-1.65l6-5.07a1.09,1.09,0,0,1,1.41,1.65l-5,4.24,5,4.25a1.09,1.09,0,0,1,.12,1.53A1.1,1.1,0,0,1,157.77,273.32Zm0-12a.75.75,0,0,0-.49.19l-5.95,5.07a.75.75,0,0,0,0,1.15l5.95,5.07a.75.75,0,0,0,.49.19.76.76,0,0,0,.49-1.34l-5.28-4.5,5.28-4.49a.76.76,0,0,0,.09-1.07.73.73,0,0,0-.52-.26Z"/><path class="cls-1" d="M169.53,273.16a.9.9,0,0,1-.7-.33.91.91,0,0,1,.11-1.29l5.13-4.37-5.13-4.38a.92.92,0,1,1,1.19-1.4l6,5.07a.94.94,0,0,1,0,1.41l-6,5.07a.91.91,0,0,1-.6.22"/><path class="cls-1" d="M169.53,273.32a1.07,1.07,0,0,1-.82-.38,1.09,1.09,0,0,1,.12-1.53l5-4.25-5-4.24a1.09,1.09,0,0,1-.12-1.53,1.08,1.08,0,0,1,1.53-.12l5.95,5.07a1.09,1.09,0,0,1,0,1.65l-6,5.07A1,1,0,0,1,169.53,273.32Zm0-12h-.06a.73.73,0,0,0-.51.26.76.76,0,0,0,.08,1.07l5.28,4.49-5.28,4.5a.76.76,0,0,0-.08,1.07.74.74,0,0,0,.57.27.73.73,0,0,0,.49-.19l6-5.07a.75.75,0,0,0,0-1.15l-6-5.07A.73.73,0,0,0,169.53,261.33Z"/><path class="cls-1" d="M161.54,277a.65.65,0,0,1-.19,0,.93.93,0,0,1-.71-1.09l3.71-17.62a.92.92,0,1,1,1.81.37l-3.72,17.63a.91.91,0,0,1-.9.73"/><path class="cls-1" d="M161.54,277.13l-.22,0a1.09,1.09,0,0,1-.84-1.28l3.72-17.63a1.08,1.08,0,0,1,1.28-.84,1.1,1.1,0,0,1,.84,1.29l-3.72,17.63A1.08,1.08,0,0,1,161.54,277.13Zm3.72-19.47a.77.77,0,0,0-.75.6l-3.71,17.63a.76.76,0,0,0,1.48.31L166,258.57a.77.77,0,0,0-.59-.9Z"/><path class="cls-2" d="M185.35,286.57H142a6.2,6.2,0,0,1-6.18-6.18V243.55a6.19,6.19,0,0,1,6.18-6.18h43.4a6.18,6.18,0,0,1,6.18,6.18v36.84a6.19,6.19,0,0,1-6.18,6.18M142,239.21a4.35,4.35,0,0,0-4.34,4.34v36.84a4.35,4.35,0,0,0,4.34,4.34h43.4a4.34,4.34,0,0,0,4.34-4.34V243.55a4.34,4.34,0,0,0-4.34-4.34Z"/><path class="cls-2" d="M185.35,286.73H142a6.35,6.35,0,0,1-6.34-6.34V243.55A6.35,6.35,0,0,1,142,237.2h43.4a6.36,6.36,0,0,1,6.35,6.35v36.84A6.36,6.36,0,0,1,185.35,286.73ZM142,237.53a6,6,0,0,0-6,6v36.84a6,6,0,0,0,6,6h43.4a6,6,0,0,0,6-6V243.55a6,6,0,0,0-6-6Zm43.4,47.36H142a4.51,4.51,0,0,1-4.5-4.5V243.55a4.51,4.51,0,0,1,4.5-4.5h43.4a4.51,4.51,0,0,1,4.51,4.5v36.84A4.51,4.51,0,0,1,185.35,284.89ZM142,239.37a4.18,4.18,0,0,0-4.17,4.18v36.84a4.17,4.17,0,0,0,4.17,4.17h43.4a4.18,4.18,0,0,0,4.18-4.17V243.55a4.18,4.18,0,0,0-4.18-4.18Z"/><path class="cls-2" d="M190.61,252.11H136.69a.92.92,0,0,1,0-1.84h53.92a.92.92,0,0,1,0,1.84"/><path class="cls-2" d="M190.61,252.27H136.69a1.08,1.08,0,1,1,0-2.16h53.92a1.08,1.08,0,1,1,0,2.16Zm-53.92-1.84a.76.76,0,0,0,0,1.52h53.92a.76.76,0,0,0,0-1.52Z"/><path class="cls-1" d="M151.5,247.71a2.92,2.92,0,1,1,2.91-2.92,2.92,2.92,0,0,1-2.91,2.92m0-4a1.07,1.07,0,1,0,1.07,1.07,1.07,1.07,0,0,0-1.07-1.07"/><path class="cls-1" d="M151.5,247.87a3.08,3.08,0,1,1,3.08-3.08A3.08,3.08,0,0,1,151.5,247.87Zm0-5.83a2.75,2.75,0,1,0,2.75,2.75A2.75,2.75,0,0,0,151.5,242Zm0,4a1.24,1.24,0,1,1,1.24-1.24A1.24,1.24,0,0,1,151.5,246Zm0-2.15a.91.91,0,1,0,.91.91A.91.91,0,0,0,151.5,243.88Z"/><path class="cls-1" d="M142.55,247.68a2.92,2.92,0,1,1,2.91-2.92,2.91,2.91,0,0,1-2.91,2.92m0-4a1.08,1.08,0,1,0,1.07,1.07,1.07,1.07,0,0,0-1.07-1.07"/><path class="cls-1" d="M142.55,247.84a3.08,3.08,0,1,1,3.08-3.08A3.08,3.08,0,0,1,142.55,247.84Zm0-5.83a2.75,2.75,0,1,0,2.75,2.75A2.75,2.75,0,0,0,142.55,242Zm0,4a1.24,1.24,0,1,1,1.24-1.24A1.24,1.24,0,0,1,142.55,246Zm0-2.15a.91.91,0,1,0,.91.91A.91.91,0,0,0,142.55,243.85Z"/><path class="cls-1" d="M160.45,247.73a2.91,2.91,0,1,1,2.92-2.91,2.91,2.91,0,0,1-2.92,2.91m0-4a1.07,1.07,0,1,0,1.07,1.07,1.07,1.07,0,0,0-1.07-1.07"/><path class="cls-1" d="M160.45,247.9a3.08,3.08,0,1,1,3.08-3.08A3.08,3.08,0,0,1,160.45,247.9Zm0-5.83a2.75,2.75,0,1,0,2.75,2.75A2.75,2.75,0,0,0,160.45,242.07Zm0,4a1.24,1.24,0,1,1,1.24-1.24A1.24,1.24,0,0,1,160.45,246.06Zm0-2.15a.91.91,0,1,0,.91.91A.91.91,0,0,0,160.45,243.91Z"/><text class="cls-3" transform="translate(152.28 305.38)">Build</text><path class="cls-2" d="M101.92,371.27H48.48a1.17,1.17,0,0,1,0-2.33h53.44a1.17,1.17,0,0,1,0,2.33"/><path class="cls-2" d="M97.27,371.27a1.16,1.16,0,0,1-1.16-1.16V349.19a1.16,1.16,0,1,1,2.32,0v20.92a1.16,1.16,0,0,1-1.16,1.16"/><path class="cls-2" d="M53.13,371.27A1.16,1.16,0,0,1,52,370.11V343.39a4.65,4.65,0,0,1,4.64-4.65h8.13a1.16,1.16,0,1,1,0,2.32H56.61a2.33,2.33,0,0,0-2.32,2.33v26.72a1.16,1.16,0,0,1-1.16,1.16"/><path class="cls-1" d="M82.77,354.63a1.2,1.2,0,0,1-.82-.34l-8.36-8.36a1.16,1.16,0,0,1,0-1.6l6.85-7.6c4.86-5.61,12.57-9.49,19.17-9.61a1.08,1.08,0,0,1,.85.34,1.17,1.17,0,0,1,.34.84c-.13,6.61-4,14.32-9.63,19.2l-7.58,6.83a1.16,1.16,0,0,1-.78.3M76,345.07l6.79,6.8,6.78-6.11c4.83-4.18,8.24-10.55,8.77-16.24-5.68.54-12.06,3.94-16.22,8.75Z"/><path class="cls-1" d="M85.89,360.14a1.12,1.12,0,0,1-.31-.05,1.15,1.15,0,0,1-.82-.84l-1.64-6.86a1.16,1.16,0,1,1,2.26-.54l1.09,4.55c2-3.16,2.42-7.2,2.47-9.56a1.15,1.15,0,0,1,1.18-1.14,1.16,1.16,0,0,1,1.14,1.18c-.1,5.5-1.71,10.08-4.55,12.92a1.15,1.15,0,0,1-.82.34"/><path class="cls-1" d="M75.75,344.79a.88.88,0,0,1-.27,0l-6.85-1.64a1.16,1.16,0,0,1-.55-1.95c2.83-2.83,7.42-4.44,12.92-4.54a1.14,1.14,0,0,1,1.18,1.14A1.16,1.16,0,0,1,81,338.94c-2.37,0-6.41.45-9.56,2.47L76,342.5a1.16,1.16,0,0,1,.86,1.4,1.17,1.17,0,0,1-1.14.89"/><path class="cls-1" d="M67.06,362a1.13,1.13,0,0,1-.82-.34,1.16,1.16,0,0,1-.29-1.15c.38-1.28,2.37-7.76,3.94-9.32A4.83,4.83,0,0,1,76.71,358c-1.56,1.56-8,3.55-9.31,3.94a1.32,1.32,0,0,1-.34,0m6.24-9.9a2.53,2.53,0,0,0-1.77.73c-.66.66-1.79,3.57-2.68,6.22,2.65-.89,5.56-2,6.22-2.68a2.5,2.5,0,0,0,0-3.54,2.53,2.53,0,0,0-1.77-.73m2.59,5.1h0Z"/><text class="cls-3" transform="translate(59.42 390.9)">Launch</text><path class="cls-2" d="M144.22,462.94a3.73,3.73,0,0,0-5.09-1.38h0L130,466.82a3.71,3.71,0,0,0-2.11-1.52L114,461.57a6.51,6.51,0,0,0-3.28,0l-4.9,1.23v-1.61a.94.94,0,0,0-.94-.93H97.37a.94.94,0,0,0-.94.93v.94H89.89A.93.93,0,0,0,89,463v13.08a.94.94,0,0,0,.93.94h6.54V478a.93.93,0,0,0,.94.93h7.47a.93.93,0,0,0,.94-.93v-1.29l1.2.6a6.6,6.6,0,0,0,2.92.69h14a6.52,6.52,0,0,0,3.27-.88L142.86,468a3.74,3.74,0,0,0,1.36-5.1m-53.39,1h5.6v11.21h-5.6Zm13.08,13.08H98.3V462.1h5.61Zm38-10.62-15.7,9.06a4.69,4.69,0,0,1-2.34.63h-14a4.76,4.76,0,0,1-2.09-.5l-2-1v-9.9l5.35-1.34a4.57,4.57,0,0,1,2.35,0l13.94,3.73a1.87,1.87,0,0,1-.9,3.63l-.07,0-11.14-3a.94.94,0,0,0-.49,1.81l11.15,3a3.91,3.91,0,0,0,1,.13,3.7,3.7,0,0,0,3.72-3.67c0-.12,0-.24,0-.37l9.41-5.43a1.91,1.91,0,0,1,2.55.69,1.88,1.88,0,0,1-.67,2.55"/><path class="cls-1" d="M114.19,450h3.51c0,.14.1.26.16.39l-2.48,2.48a.92.92,0,0,0,0,1.32l4,4a.92.92,0,0,0,1.32,0l2.48-2.48.39.17v3.5a.94.94,0,0,0,.94.94h5.6a.94.94,0,0,0,.94-.94v-3.5l.39-.17,2.48,2.48a1,1,0,0,0,1.32,0l4-4a.92.92,0,0,0,0-1.32l-2.48-2.48c.06-.13.11-.25.16-.39h3.51a.94.94,0,0,0,.94-.93v-5.61a.93.93,0,0,0-.94-.93h-3.51c-.05-.14-.1-.27-.16-.4l2.48-2.48a.92.92,0,0,0,0-1.32l-4-4a.94.94,0,0,0-1.32,0l-2.48,2.48-.39-.16v-3.51a.94.94,0,0,0-.94-.93h-5.6a.94.94,0,0,0-.94.93v3.51l-.39.16-2.48-2.48a1,1,0,0,0-1.32,0l-4,4a.92.92,0,0,0,0,1.32l2.48,2.48c-.06.13-.11.26-.16.4h-3.51a.92.92,0,0,0-.93.93V449a.93.93,0,0,0,.93.93m.93-5.61h3.24a1,1,0,0,0,.89-.64,7.64,7.64,0,0,1,.56-1.36.91.91,0,0,0-.16-1.1l-2.28-2.3L120,436.3l2.29,2.3a.94.94,0,0,0,1.11.15,7.25,7.25,0,0,1,1.35-.56,1,1,0,0,0,.64-.89v-3.23h3.74v3.23a.94.94,0,0,0,.65.89,7.54,7.54,0,0,1,1.35.56.94.94,0,0,0,1.11-.15l2.29-2.3,2.64,2.64-2.29,2.3a.91.91,0,0,0-.16,1.1,7.64,7.64,0,0,1,.56,1.36,1,1,0,0,0,.89.64h3.24v3.74h-3.24a.94.94,0,0,0-.89.65,7.25,7.25,0,0,1-.56,1.35.92.92,0,0,0,.16,1.11l2.29,2.29-2.64,2.64-2.29-2.29a.94.94,0,0,0-1.11-.16,8.4,8.4,0,0,1-1.35.57.92.92,0,0,0-.65.89v3.23H125.4v-3.23a.92.92,0,0,0-.65-.89,8.4,8.4,0,0,1-1.35-.57.94.94,0,0,0-1.11.16L120,456.12l-2.63-2.64,2.29-2.29a.94.94,0,0,0,.16-1.11,8,8,0,0,1-.57-1.35.93.93,0,0,0-.89-.65h-3.24Z"/><path class="cls-1" d="M127.27,451.82a5.61,5.61,0,1,1,5.6-5.61,5.61,5.61,0,0,1-5.6,5.61m0-9.34a3.74,3.74,0,1,0,3.73,3.73,3.73,3.73,0,0,0-3.73-3.73"/><text class="cls-3" transform="translate(99.23 498.18)">Support</text><path class="cls-4" d="M109.24,330.48a1,1,0,0,0,1.36,1A70.86,70.86,0,0,0,125.41,323a1,1,0,0,0-.48-1.79,18.38,18.38,0,0,0-5.87.77c7.1-8.89,15.41-17.37,20-27.93.35-.75-.85-1.45-1.27-.75C132,303.5,124.14,312,117,321.2c-.37-1.8-.74-3.6-1-5.36a1,1,0,0,0-1.81-.44A39.32,39.32,0,0,0,109.24,330.48Zm6.52-7.18a1,1,0,0,0,1.84.67l.09-.13c1.37-.2,2.67-.44,4.1-.58a75.5,75.5,0,0,1-10.27,5.68,35.72,35.72,0,0,1,3.16-10c.23,1.18.52,2.42.69,3.67A.61.61,0,0,0,115.76,323.3Z"/><path class="cls-4" d="M113.67,232a1,1,0,0,0-1.65.84c.09,1.77.14,3.62.18,5.46-9-7.35-18.55-13.9-26.5-22.49-.56-.58-1.58.37-1.06,1,6.85,9.26,16.86,15.65,25.77,22.72a18.42,18.42,0,0,0-5.89.56,1,1,0,0,0-.07,1.85,70.19,70.19,0,0,0,16.33,4.93,1,1,0,0,0,1.1-1.31A39.28,39.28,0,0,0,113.67,232Zm.46,7.28c-.11-1.26-.1-2.53-.15-3.73a35.79,35.79,0,0,1,5.34,9A74.61,74.61,0,0,1,108,241.41c1.43-.19,2.75-.24,4.12-.36l.12.1a1,1,0,0,0,1.64-1.06A.6.6,0,0,0,114.13,239.32Z"/><path class="cls-4" d="M123.56,424.23a1,1,0,0,0,1.5-.82,70.43,70.43,0,0,0-1.68-17,1,1,0,0,0-1.83-.29,18.61,18.61,0,0,0-1.69,5.67c-5.21-10.11-9.55-21.16-17.32-29.68-.53-.63-1.66.18-1.2.85,6.9,9.46,11.47,20.1,16.94,30.35-1.79-.4-3.59-.8-5.32-1.24a1,1,0,0,0-1.14,1.46A39.39,39.39,0,0,0,123.56,424.23Zm-3.89-8.89a1,1,0,0,0,1.36-1.4l-.07-.14c.38-1.33.69-2.61,1.14-4a73.78,73.78,0,0,1,1,11.69,36,36,0,0,1-7.85-7c1.18.28,2.42.52,3.64.87A.59.59,0,0,0,119.67,415.34Z"/></svg>