<svg id="Layer_1" data-name="Layer 1" xmlns="http://www.w3.org/2000/svg" viewBox="0 0 250 235"><defs><style>.cls-1{fill:#fff;}</style></defs><title>application-w</title><rect class="cls-1" y="62.41" width="47.07" height="110.87"/><path class="cls-1" d="M7.32.69A7.32,7.32,0,0,0,0,8V47.76H188.28V.69Z"/><path class="cls-1" d="M242.68.69H202.93V47.76H250V8A7.32,7.32,0,0,0,242.68.69Z"/><path class="cls-1" d="M0,187.93v39.75A7.32,7.32,0,0,0,7.32,235H47.07V187.93Z"/><path class="cls-1" d="M61.72,62.41V235h181a7.32,7.32,0,0,0,7.32-7.32V62.41ZM194,150.27a8.86,8.86,0,0,1-5-1.57H154.62a7.27,7.27,0,0,1-4.52,1.57H147a7.26,7.26,0,0,1-4-1.17,39.79,39.79,0,0,0-34.21,39.35,7.33,7.33,0,0,1-14.65,0,54.26,54.26,0,0,1,17.3-39.75h-3.37a8.89,8.89,0,1,1,0-14.64h34.38a7.27,7.27,0,0,1,4.52-1.57h3.13a7.26,7.26,0,0,1,4,1.17,39.79,39.79,0,0,0,34.21-39.35,7.33,7.33,0,1,1,14.65,0,54.26,54.26,0,0,1-17.3,39.75H189a8.89,8.89,0,1,1,5,16.21Z"/></svg>