<svg id="Layer_1" data-name="Layer 1" xmlns="http://www.w3.org/2000/svg" viewBox="0 0 250 250"><defs><style>.cls-1{fill:#fff;}</style></defs><title>email-w</title><g id="Email"><path class="cls-1" d="M26.79,111.85l74.68,56.65,20.85-15.82a4.46,4.46,0,0,1,5.39,0l20.84,15.8,74.66-56.63V26.79H26.79ZM125,49.11a40.23,40.23,0,0,1,40.18,40.18v8.92a13.37,13.37,0,0,1-24.71,7.1,22.27,22.27,0,1,1,6.85-16v8.92a4.47,4.47,0,1,0,8.93,0V89.29A31.25,31.25,0,1,0,125,120.54h13.39a4.46,4.46,0,1,1,0,8.92H125a40.18,40.18,0,1,1,0-80.35Z"/><circle class="cls-1" cx="125" cy="89.29" r="13.39"/><path class="cls-1" d="M2.92,93.75l14.94,11.33V82.42Z"/><path class="cls-1" d="M0,245.47,94.08,174.1,0,102.74Z"/><path class="cls-1" d="M232.14,105.08l14.94-11.33L232.14,82.43Z"/><path class="cls-1" d="M250,102.74,155.92,174.1,250,245.47Z"/><path class="cls-1" d="M125,161.85,8.81,250H241.19Z"/><path class="cls-1" d="M103,17.86H147L125,1.14Z"/></g></svg>