<svg id="Layer_1" data-name="Layer 1" xmlns="http://www.w3.org/2000/svg" viewBox="0 0 250 250"><defs><style>.cls-1{fill:#ff003c;}.cls-2{fill:#0092ff;}</style></defs><title>email</title><g id="Email"><path class="cls-1" d="M26.79,111.28l74.68,56.65,20.85-15.82a4.46,4.46,0,0,1,5.39,0l20.84,15.8,74.66-56.63V26.22H26.79ZM125,48.54a40.23,40.23,0,0,1,40.18,40.18v8.93a13.37,13.37,0,0,1-24.71,7.09,22.26,22.26,0,1,1,6.85-16v8.93a4.47,4.47,0,0,0,8.93,0V88.72A31.25,31.25,0,1,0,125,120h13.39a4.47,4.47,0,1,1,0,8.93H125a40.18,40.18,0,0,1,0-80.36Z"/><circle class="cls-2" cx="125" cy="88.72" r="13.39"/><path class="cls-2" d="M2.92,93.18l14.94,11.33V81.85Z"/><path class="cls-1" d="M0,244.9l94.08-71.37L0,102.17Z"/><path class="cls-2" d="M232.14,104.51l14.94-11.33L232.14,81.86Z"/><path class="cls-1" d="M250,102.17l-94.08,71.36L250,244.9Z"/><path class="cls-1" d="M125,161.28,8.81,249.43H241.19Z"/><path class="cls-2" d="M103,17.29H147L125,.57Z"/></g></svg>