<svg id="Layer_1" data-name="Layer 1" xmlns="http://www.w3.org/2000/svg" viewBox="0 0 142 250"><defs><style>.cls-1{fill:#fff;}</style></defs><title>mobile-w</title><g id="Page-1"><g id="_033---Apps" data-name="033---Apps"><path id="Rectangle-path" class="cls-1" d="M30.82,133.93H57.61v26.78H30.82Z"/><path id="Rectangle-path-2" data-name="Rectangle-path" class="cls-1" d="M30.82,80.36H57.61v26.78H30.82Z"/><path id="Shape" class="cls-1" d="M8.5,236.61a17.56,17.56,0,0,1-8.93-2.5v7A8.93,8.93,0,0,0,8.5,250h125a8.93,8.93,0,0,0,8.93-8.93v-7a17.56,17.56,0,0,1-8.93,2.5Z"/><path id="Shape-2" data-name="Shape" class="cls-1" d="M93.32,8.93a9,9,0,0,0,6.52-2.81L105.33,0H36.67l5.71,6.12A9,9,0,0,0,48.9,8.93Z"/><path id="Rectangle-path-3" data-name="Rectangle-path" class="cls-1" d="M84.39,80.36h26.79v26.78H84.39Z"/><path id="Shape-3" data-name="Shape" class="cls-1" d="M142.43,8.93A8.93,8.93,0,0,0,133.5,0H117.56L106.13,12.23a17.86,17.86,0,0,1-12.81,5.63H49.13a17.88,17.88,0,0,1-13-5.63L24.44,0H8.5A8.93,8.93,0,0,0-.43,8.93V218.75a8.93,8.93,0,0,0,8.93,8.93h125a8.93,8.93,0,0,0,8.93-8.93ZM66.54,160.71a8.93,8.93,0,0,1-8.93,8.93H30.82a8.93,8.93,0,0,1-8.93-8.93V133.93A8.93,8.93,0,0,1,30.82,125H57.61a8.93,8.93,0,0,1,8.93,8.93Zm0-53.57a8.93,8.93,0,0,1-8.93,8.93H30.82a8.93,8.93,0,0,1-8.93-8.93V80.36a8.93,8.93,0,0,1,8.93-8.93H57.61a8.93,8.93,0,0,1,8.93,8.93Zm49.1,44.65H102.25v13.39a4.47,4.47,0,0,1-8.93,0V151.79H79.93a4.47,4.47,0,1,1,0-8.93H93.32v-13.4a4.47,4.47,0,0,1,8.93,0v13.4h13.39a4.47,4.47,0,1,1,0,8.93Zm4.47-44.65a8.93,8.93,0,0,1-8.93,8.93H84.39a8.93,8.93,0,0,1-8.93-8.93V80.36a8.93,8.93,0,0,1,8.93-8.93h26.79a8.93,8.93,0,0,1,8.93,8.93Z"/></g></g></svg>