<svg id="Layer_1" data-name="Layer 1" xmlns="http://www.w3.org/2000/svg" viewBox="0 0 250 250"><defs><style>.cls-1{fill:#0092ff;}.cls-2{fill:#ff003c;}</style></defs><title>social-media</title><path class="cls-1" d="M86.21,211.21V189.66a4.31,4.31,0,0,1,2.38-3.86L98.12,181l-9.53-4.76a4.31,4.31,0,0,1-2.38-3.86V159.48a4.32,4.32,0,0,0-4.31-4.31H4.31A4.32,4.32,0,0,0,0,159.48v51.73a4.32,4.32,0,0,0,4.31,4.31H81.9A4.32,4.32,0,0,0,86.21,211.21Zm-8.62-4.31h-69v-8.62h69ZM17.24,189.66V181H69v8.63Zm60.35-17.25h-69v-8.62h69Z"/><path class="cls-1" d="M77.59,47.76,41.49,76.64a4.3,4.3,0,0,1-5.39,0L0,47.76V94.83H77.59Z"/><path class="cls-2" d="M69.61,43.1H8L38.79,67.75Z"/><path class="cls-2" d="M168.1,0H81.9A21.59,21.59,0,0,0,60.78,17.24H189.22A21.59,21.59,0,0,0,168.1,0Z"/><path class="cls-2" d="M94.83,211.21A12.94,12.94,0,0,1,81.9,224.14H60.34v4.31A21.58,21.58,0,0,0,81.9,250h86.2a21.58,21.58,0,0,0,21.56-21.55V206.9H94.83ZM125,215.52a12.93,12.93,0,1,1-12.93,12.93A12.94,12.94,0,0,1,125,215.52Z"/><circle class="cls-1" cx="125" cy="228.45" r="4.31"/><circle class="cls-2" cx="215.52" cy="112.07" r="12.93"/><path class="cls-1" d="M237.07,73.28H194A13,13,0,0,0,181,86.21v43.1A13,13,0,0,0,194,142.24h43.1A12.94,12.94,0,0,0,250,129.31V86.21A12.94,12.94,0,0,0,237.07,73.28Zm-21.55,60.34a21.55,21.55,0,1,1,21.55-21.55A21.57,21.57,0,0,1,215.52,133.62Zm25.86-43.1h-8.62V81.9h8.62Z"/><path class="cls-2" d="M172.41,129.31V86.21a21.59,21.59,0,0,1,17.25-21.12V25.86H60.34v8.62H81.9a4.31,4.31,0,0,1,4.31,4.31V99.14a4.31,4.31,0,0,1-4.31,4.31H60.34v43.1H81.9a12.94,12.94,0,0,1,12.93,12.93v10.27l14.86,7.43a4.31,4.31,0,0,1,0,7.71l-14.86,7.43v6h94.83V150.43A21.6,21.6,0,0,1,172.41,129.31Z"/></svg>