<svg id="Layer_1" data-name="Layer 1" xmlns="http://www.w3.org/2000/svg" viewBox="0 0 250 250"><defs><style>.cls-1{fill:#ff003c;}.cls-2{fill:#0092ff;}</style></defs><title>website</title><path class="cls-1" d="M185.21,111.1a29.28,29.28,0,0,1-25.78-21.79H132.32v71.38h50.19A202.6,202.6,0,0,0,185.21,111.1Z"/><path class="cls-2" d="M187.73,67.4A14.59,14.59,0,1,0,202.31,82,14.61,14.61,0,0,0,187.73,67.4Z"/><circle class="cls-2" cx="61.57" cy="168.5" r="22.03"/><path class="cls-1" d="M117.68,0C101,11.49,87.36,30.86,78,53.29a164.47,164.47,0,0,0-7.22,21.37h46.92Z"/><path class="cls-1" d="M64.44,131.94a36.74,36.74,0,0,1,33,28.75h20.28V89.31H67.5A203,203,0,0,0,64.44,131.94Z"/><path class="cls-1" d="M117.68,250V175.34H97.59a36.74,36.74,0,0,1-18.06,25.11c9.15,20.86,21.93,38.61,38.15,49.55Z"/><path class="cls-1" d="M132.32,250c17.53-12,31.57-32.48,41-56.45a170.09,170.09,0,0,0,5.95-18.21H132.32Z"/><path class="cls-1" d="M186.94,198.9c-7.27,18.52-17.12,34.26-29.11,46.73a125.29,125.29,0,0,0,81.61-70.29H194.36a183.18,183.18,0,0,1-7.42,23.56Z"/><path class="cls-1" d="M61.57,205.17a36.73,36.73,0,0,1-36-29.83h-15a125.28,125.28,0,0,0,81.19,70.18Q75.81,229,65.52,205a36.91,36.91,0,0,1-3.95.22Z"/><path class="cls-1" d="M199.72,108.64a217.63,217.63,0,0,1-2.35,52.05h47.45a125.54,125.54,0,0,0,0-71.38H216A29.34,29.34,0,0,1,199.72,108.64Z"/><path class="cls-1" d="M49.85,133.75a218.11,218.11,0,0,1,2.79-44.44H5.18a125.54,125.54,0,0,0,0,71.38H25.74A36.8,36.8,0,0,1,49.85,133.75Z"/><path class="cls-1" d="M187.58,52.76h.15A29.29,29.29,0,0,1,216,74.66h23.41a125.27,125.27,0,0,0-81.62-70.3,122.66,122.66,0,0,1,8.1,9.35,149,149,0,0,1,21.66,39.05Z"/><path class="cls-1" d="M132.32,0V74.66h27.11a29.33,29.33,0,0,1,13.91-18.11C166.11,38.1,153.6,14.54,132.32,0Z"/><path class="cls-1" d="M64.47,47.63C71.58,30.62,81,16.06,92.19,4.36a125.27,125.27,0,0,0-81.63,70.3H55.65a182.29,182.29,0,0,1,8.82-27Z"/></svg>