<svg id="Layer_1" data-name="Layer 1" xmlns="http://www.w3.org/2000/svg" viewBox="0 0 250 250"><defs><style>.cls-1{fill:#0092ff;}.cls-2{fill:#ff003c;}</style></defs><title>application</title><rect class="cls-1" y="69.57" width="47.07" height="110.87"/><path class="cls-2" d="M7.32,7.84A7.33,7.33,0,0,0,0,15.17V54.92H188.28V7.84Z"/><path class="cls-1" d="M242.68,7.84H202.93V54.92H250V15.17A7.33,7.33,0,0,0,242.68,7.84Z"/><path class="cls-1" d="M0,195.08v39.75a7.32,7.32,0,0,0,7.32,7.32H47.07V195.08Z"/><path class="cls-2" d="M61.72,69.56v172.6h181a7.33,7.33,0,0,0,7.32-7.33V69.56ZM194,157.43a8.86,8.86,0,0,1-5-1.57H154.62a7.27,7.27,0,0,1-4.52,1.57H147a7.27,7.27,0,0,1-4-1.18,39.81,39.81,0,0,0-34.21,39.36,7.33,7.33,0,0,1-14.65,0,54.23,54.23,0,0,1,17.3-39.75h-3.37a8.9,8.9,0,1,1,0-14.65h34.38a7.27,7.27,0,0,1,4.52-1.57h3.13a7.27,7.27,0,0,1,4,1.18,39.81,39.81,0,0,0,34.21-39.36,7.33,7.33,0,0,1,14.65,0,54.25,54.25,0,0,1-17.3,39.75H189a8.89,8.89,0,1,1,5,16.22Z"/></svg>