<svg id="Layer_1" data-name="Layer 1" xmlns="http://www.w3.org/2000/svg" viewBox="0 0 250 250"><defs><style>.cls-1{fill:#ff003c;}.cls-2{fill:#0092ff;}</style></defs><title>Artboard 1 copy 5</title><path class="cls-1" d="M0,148.93v29.29a26.86,26.86,0,0,0,26.86,26.86H41.5a7.33,7.33,0,0,0,7.33-7.33V122.07h-22A26.85,26.85,0,0,0,0,148.93Z"/><path class="cls-2" d="M171.39,144V105A17.11,17.11,0,0,0,154.3,87.89H95.7A17.11,17.11,0,0,0,78.61,105V144A17.11,17.11,0,0,0,95.7,161.13h16.88l27.26,22.72a7.33,7.33,0,0,0,12-5.63V161.13h2.44A17.11,17.11,0,0,0,171.39,144Zm-36.62-12.2H115.23a7.33,7.33,0,0,1,0-14.65h19.54a7.33,7.33,0,0,1,0,14.65Z"/><path class="cls-1" d="M98.14,235.35A14.65,14.65,0,0,0,112.79,250h24.42a14.65,14.65,0,0,0,0-29.3H112.79A14.65,14.65,0,0,0,98.14,235.35Z"/><path class="cls-1" d="M206.05,219.73v1.46a7.33,7.33,0,0,1-7.32,7.33h-33a29.25,29.25,0,0,1-.25,14.64h33.29a22,22,0,0,0,22-22v-1.46Z"/><path class="cls-1" d="M223.14,122.07h-22v75.68a7.33,7.33,0,0,0,7.33,7.33h14.64A26.86,26.86,0,0,0,250,178.22V148.93A26.85,26.85,0,0,0,223.14,122.07Z"/><path class="cls-1" d="M199.58,30.89a105.47,105.47,0,0,0-180,74.58v2h29.3v-2a76.17,76.17,0,0,1,152.34,0v2h29.3v-2A104.79,104.79,0,0,0,199.58,30.89Z"/></svg>