<svg id="Layer_1" data-name="Layer 1" xmlns="http://www.w3.org/2000/svg" viewBox="0 0 250 250"><defs><style>.cls-1{fill:#ff003c;}.cls-2{fill:#0092ff;}</style></defs><title>Artboard 1 copy 3</title><path class="cls-1" d="M222.64,41A33.72,33.72,0,0,1,189,7.32V0H61V7.32A33.72,33.72,0,0,1,27.36,41H20V193.33L125,250l105-56.67V41ZM125,179.67a64,64,0,1,1,64-64A64,64,0,0,1,125,179.67Z"/><path class="cls-2" d="M125,66.4a49.31,49.31,0,1,0,49.32,49.31A49.37,49.37,0,0,0,125,66.4Zm-7.42,74.18L98.21,121.21l10.35-10.36,9,9L141.44,96l10.35,10.36Z"/></svg>