<svg id="Layer_1" data-name="Layer 1" xmlns="http://www.w3.org/2000/svg" viewBox="0 0 250 250"><defs><style>.cls-1{fill:#ff003c;}.cls-2{fill:#0092ff;}</style></defs><title>Artboard 1</title><circle class="cls-1" cx="125" cy="81.52" r="38.04"/><circle class="cls-2" cx="201.09" cy="114.13" r="27.17"/><circle class="cls-2" cx="49.68" cy="114.13" r="27.17"/><path class="cls-1" d="M125,130.43a70.73,70.73,0,0,0-70.65,70.66,5.43,5.43,0,0,0,5.43,5.43H190.22a5.43,5.43,0,0,0,5.43-5.43A70.73,70.73,0,0,0,125,130.43Z"/><path class="cls-2" d="M59.05,153.35a48.44,48.44,0,0,0-10.14-1.18A49,49,0,0,0,0,201.09a5.43,5.43,0,0,0,5.43,5.43H44.48a16,16,0,0,1-1-5.43A81,81,0,0,1,59.05,153.35Z"/><path class="cls-2" d="M201.09,152.17A48.44,48.44,0,0,0,191,153.35a81,81,0,0,1,15.57,47.74,16,16,0,0,1-1,5.43h39a5.43,5.43,0,0,0,5.43-5.43A49,49,0,0,0,201.09,152.17Z"/></svg>