<svg id="Layer_1" data-name="Layer 1" xmlns="http://www.w3.org/2000/svg" viewBox="0 0 250 250"><defs><style>.cls-1{fill:#0092ff;}.cls-2{fill:#ff003c;}</style></defs><title>e-commerce</title><circle class="cls-1" cx="100.27" cy="220.45" r="29.55"/><path class="cls-1" d="M186.52,190.89h0a29.56,29.56,0,1,0,29.55,29.56A29.55,29.55,0,0,0,186.52,190.89Z"/><path class="cls-2" d="M236.88,160.74H82.78l-3-17.5H206.42a9,9,0,0,0,8.45-5.72l30.15-76a9,9,0,0,0-5.1-11.73,8.89,8.89,0,0,0-3.34-.63H64.08L56.85,7.54A9.06,9.06,0,0,0,47.8,0H13.12a9,9,0,1,0,0,18.09H40.26l25.93,153.2a9.06,9.06,0,0,0,9,7.54H236.88a9,9,0,1,0,0-18.09Z"/></svg>