<svg id="Layer_1" data-name="Layer 1" xmlns="http://www.w3.org/2000/svg" viewBox="0 0 250 250"><defs><style>.cls-1{fill:#fff;}</style></defs><title>seo-w</title><path class="cls-1" d="M86.36,96.64a28.2,28.2,0,1,0,28.2,28.2A28.23,28.23,0,0,0,86.36,96.64Z"/><path class="cls-1" d="M241,34.37H9a9,9,0,0,0-9,9V187.09a9,9,0,0,0,9,9h4.25L53.3,156a2.74,2.74,0,0,0,.19-3.69,42.75,42.75,0,1,1,15.17,11.57,2.72,2.72,0,0,0-3.07.55L33.93,196.06H241a9,9,0,0,0,9-9V43.35A9,9,0,0,0,241,34.37ZM155.38,161.52a7.33,7.33,0,0,1-14.65,0V133.26a7.33,7.33,0,1,1,14.65,0Zm22.94,0a7.32,7.32,0,0,1-14.64,0V84.44a7.32,7.32,0,1,1,14.64,0Zm23.33,0a7.33,7.33,0,0,1-14.65,0V104a7.33,7.33,0,0,1,14.65,0Zm23.34,0a7.33,7.33,0,0,1-14.65,0v-38a7.33,7.33,0,0,1,14.65,0Z"/><path class="cls-1" d="M183.63,235.93l0,0a147.47,147.47,0,0,0-35.26-10.2V211.82a2.73,2.73,0,0,0-2.74-2.74H104.42a2.73,2.73,0,0,0-2.74,2.74v13.91a148,148,0,0,0-35.07,10.14,7.45,7.45,0,0,0-4.14,9.39,7.32,7.32,0,0,0,9.74,4.14A133.33,133.33,0,0,1,125,238.53h.15a133.52,133.52,0,0,1,52.65,10.83l.09,0a7.2,7.2,0,0,0,2.89.6,7.32,7.32,0,0,0,2.84-14.07Z"/><path class="cls-1" d="M13.23,196.06l-11,11a7.32,7.32,0,1,0,10.36,10.35l21.34-21.36Z"/></svg>