<svg id="Layer_1" data-name="Layer 1" xmlns="http://www.w3.org/2000/svg" viewBox="0 0 250 250"><defs><style>.cls-1{fill:#0092ff;}.cls-2{fill:#ff003c;}</style></defs><title>seo</title><path class="cls-1" d="M86.36,79.46a28.2,28.2,0,1,0,28.2,28.19A28.22,28.22,0,0,0,86.36,79.46Z"/><path class="cls-2" d="M241,17.19H9a9,9,0,0,0-9,9V169.9a9,9,0,0,0,9,9h4.25L53.3,138.79a2.74,2.74,0,0,0,.19-3.69,42.75,42.75,0,1,1,15.17,11.57,2.74,2.74,0,0,0-3.07.55L33.93,178.87H241a9,9,0,0,0,9-9V26.16A9,9,0,0,0,241,17.19ZM155.38,144.33a7.33,7.33,0,0,1-14.65,0V116.07a7.33,7.33,0,0,1,14.65,0Zm22.94,0a7.32,7.32,0,1,1-14.64,0V67.25a7.32,7.32,0,0,1,14.64,0Zm23.33,0a7.33,7.33,0,0,1-14.65,0V86.78a7.33,7.33,0,0,1,14.65,0Zm23.34,0a7.33,7.33,0,0,1-14.65,0v-38a7.33,7.33,0,1,1,14.65,0Z"/><path class="cls-1" d="M183.63,218.74l0,0a147.91,147.91,0,0,0-35.26-10.19v-13.9a2.74,2.74,0,0,0-2.74-2.74H104.42a2.74,2.74,0,0,0-2.74,2.74v13.91a148,148,0,0,0-35.07,10.14,7.46,7.46,0,0,0-4.14,9.4,7.33,7.33,0,0,0,9.74,4.14A133.17,133.17,0,0,1,125,221.34h.15a133.35,133.35,0,0,1,52.65,10.84l.09,0a7.32,7.32,0,1,0,5.73-13.48Z"/><path class="cls-1" d="M13.23,178.87l-11,11a7.33,7.33,0,0,0,10.36,10.36l21.34-21.37Z"/></svg>