<svg id="Layer_1" data-name="Layer 1" xmlns="http://www.w3.org/2000/svg" viewBox="0 0 500 500"><defs><style>.cls-1{fill:#ff003c;}.cls-2{fill:#0092ff;}</style></defs><title>adaptive-design</title><path class="cls-1" d="M29.3,440.43H303.07a57.89,57.89,0,0,1-8.15-29.3V381.84H14.65A14.64,14.64,0,0,0,0,396.48v14.65A29.3,29.3,0,0,0,29.3,440.43Z"/><path class="cls-1" d="M29.3,103.52v249H294.92V176.76a58.66,58.66,0,0,1,58.6-58.6H470.7V103.52a44,44,0,0,0-43.94-43.95H73.24A44,44,0,0,0,29.3,103.52Z"/><path class="cls-2" d="M470.7,147.46H353.52a29.34,29.34,0,0,0-29.3,29.3V411.13a29.34,29.34,0,0,0,29.3,29.3H470.7a29.34,29.34,0,0,0,29.3-29.3V176.76A29.34,29.34,0,0,0,470.7,147.46Zm-58.59,43.95a14.65,14.65,0,1,1-14.65,14.64A14.64,14.64,0,0,1,412.11,191.41Zm14.65,205.07h-29.3a14.65,14.65,0,1,1,0-29.29h29.3a14.65,14.65,0,1,1,0,29.29Z"/></svg>