<svg id="Layer_1" data-name="Layer 1" xmlns="http://www.w3.org/2000/svg" viewBox="0 0 512 512"><defs><style>.cls-1{fill:#ff003c;}.cls-2{fill:#0092ff;}</style></defs><title>code</title><path class="cls-1" d="M509.21,385.79a9.63,9.63,0,0,0-7.13-2.79H204.37a9.54,9.54,0,0,0-9.92,9.92v19.85a9.54,9.54,0,0,0,9.92,9.92H502.08a9.55,9.55,0,0,0,9.92-9.92V392.92A9.62,9.62,0,0,0,509.21,385.79Z"/><path class="cls-2" d="M32.87,92.41a9.75,9.75,0,0,0-14.26,0L3.1,107.92a9.75,9.75,0,0,0,0,14.26L125,244.06,3.1,365.94a9.76,9.76,0,0,0,0,14.27l15.5,15.5a9.76,9.76,0,0,0,14.27,0L177.39,251.19a9.77,9.77,0,0,0,0-14.26Z"/></svg>