<svg id="Layer_1" data-name="Layer 1" xmlns="http://www.w3.org/2000/svg" viewBox="0 0 500 500"><defs><style>.cls-1{fill:#0092ff;}.cls-2{fill:#ff003c;}</style></defs><title>dedicated-project-manager</title><path class="cls-1" d="M250,301.47a44.19,44.19,0,0,0-42.92,33.93,95.43,95.43,0,0,0,85.84,0A44.19,44.19,0,0,0,250,301.47Z"/><path class="cls-1" d="M250,154.41a95.54,95.54,0,0,0-67.85,162.85,74,74,0,0,1,28.72-33.88,51.47,51.47,0,1,1,78.26,0,74,74,0,0,1,28.72,33.88A95.54,95.54,0,0,0,250,154.41Z"/><circle class="cls-1" cx="250" cy="250" r="22.06"/><path class="cls-2" d="M500,291.87V208.13l-66.25-11a189.06,189.06,0,0,0-16.42-39.59l39.05-54.67L397.17,43.62,342.5,82.67a189.06,189.06,0,0,0-39.59-16.42L291.87,0H208.13l-11,66.25A189.06,189.06,0,0,0,157.5,82.67L102.83,43.62,43.62,102.83,82.67,157.5a189.06,189.06,0,0,0-16.42,39.59L0,208.13v83.74l66.25,11A189.06,189.06,0,0,0,82.67,342.5L43.62,397.17l59.21,59.21,54.67-39.05a189.06,189.06,0,0,0,39.59,16.42l11,66.25h83.74l11-66.25a189.06,189.06,0,0,0,39.59-16.42l54.67,39.05,59.21-59.21L417.33,342.5a189.06,189.06,0,0,0,16.42-39.59ZM250,375A125,125,0,1,1,375,250,125.14,125.14,0,0,1,250,375Z"/></svg>