<svg id="Layer_1" data-name="Layer 1" xmlns="http://www.w3.org/2000/svg" viewBox="0 0 512 512"><defs><style>.cls-1{fill:#ff003c;}.cls-2{fill:#0092ff;}</style></defs><title>expert-team</title><path class="cls-1" d="M336.41,75a11.83,11.83,0,0,0-9.61-8.11L285,60.79l-18.7-38.23a11.91,11.91,0,0,0-21.39,0l-18.7,38.24-41.76,6.06a11.9,11.9,0,0,0-6.6,20.31l30.24,29.48L201,158.26a12,12,0,0,0,4.74,11.65,11.83,11.83,0,0,0,12.54.9l37.37-19.65L293,170.81a11.9,11.9,0,0,0,17.27-12.55l-7.14-41.62L333.4,87.16A11.82,11.82,0,0,0,336.41,75Zm-54.36,29a11.85,11.85,0,0,0-3.42,10.53l4.12,24-21.57-11.34a12,12,0,0,0-11.08,0l-21.56,11.34,4.12-24A11.91,11.91,0,0,0,229.23,104L211.79,87l24.1-3.5a11.88,11.88,0,0,0,9-6.55l10.76-22,10.77,22a11.88,11.88,0,0,0,9,6.55L299.5,87l-17.45,17Z"/><path class="cls-1" d="M484.72,149.33a11.83,11.83,0,0,0-9.61-8.11l-28-4.06-12.51-25.34a11.9,11.9,0,0,0-21.35,0l-12.51,25.35-28,4.06a11.91,11.91,0,0,0-6.6,20.31l20.23,19.73-4.77,27.85a11.89,11.89,0,0,0,17.27,12.55l25-13.14,25,13.14a12,12,0,0,0,12.54-.91,11.83,11.83,0,0,0,4.73-11.64l-4.77-27.85,20.23-19.73A11.8,11.8,0,0,0,484.72,149.33ZM437,179.12l1.76,10.24-9.2-4.83a11.87,11.87,0,0,0-11.08,0l-9.21,4.83L411,179.12a11.94,11.94,0,0,0-3.42-10.54l-7.45-7.26,10.29-1.49a11.92,11.92,0,0,0,9-6.51L424,144l4.59,9.31a11.91,11.91,0,0,0,9,6.52l10.29,1.49-7.45,7.26A11.91,11.91,0,0,0,437,179.12Z"/><path class="cls-1" d="M147.36,149.33a11.83,11.83,0,0,0-9.61-8.11l-28-4.06-12.5-25.34a11.9,11.9,0,0,0-21.35,0L63.41,137.16l-28,4.06a11.91,11.91,0,0,0-6.6,20.31l20.23,19.73-4.77,27.85a11.9,11.9,0,0,0,17.27,12.55l25-13.14,25,13.14a11.81,11.81,0,0,0,12.53-.91,12,12,0,0,0,4.74-11.64l-4.78-27.85,20.24-19.73A11.82,11.82,0,0,0,147.36,149.33ZM99.58,179.12l1.76,10.24-9.2-4.83a11.85,11.85,0,0,0-11.07,0l-9.22,4.83,1.76-10.24a11.88,11.88,0,0,0-3.42-10.54l-7.45-7.26L73,159.83a11.92,11.92,0,0,0,9-6.51L86.6,144l4.59,9.31a11.91,11.91,0,0,0,9,6.52l10.29,1.49L103,168.58A11.91,11.91,0,0,0,99.58,179.12Z"/><path class="cls-2" d="M417.74,373.09c-24.46,0-49.23,9.76-66.71,26.22a121,121,0,0,0-190,0c-17.5-16.46-42.26-26.23-66.72-26.23C43.17,373.09,0,414.89,0,464.37v19.85a11.92,11.92,0,0,0,11.91,11.9H500.09A11.92,11.92,0,0,0,512,484.22V464.37C512,414.89,468.83,373.09,417.74,373.09Zm-161.74,4a97.37,97.37,0,0,1,97.22,95.26H158.78A97.37,97.37,0,0,1,256,377.05ZM417.74,396.9c38.18,0,70.45,30.9,70.45,67.47v7.94H377a121.52,121.52,0,0,0-12.9-52.44C377.09,405.67,397.49,396.9,417.74,396.9Zm-323.48,0c20.25,0,40.65,8.77,53.6,23A121.52,121.52,0,0,0,135,472.31H23.81v-7.94C23.81,427.8,56.08,396.9,94.26,396.9Z"/><path class="cls-2" d="M417.74,254a61.52,61.52,0,1,0,61.52,61.51A61.58,61.58,0,0,0,417.74,254Zm0,99.22a37.71,37.71,0,1,1,37.7-37.71A37.75,37.75,0,0,1,417.74,353.24Z"/><path class="cls-2" d="M94.26,254a61.52,61.52,0,1,0,61.52,61.51A61.58,61.58,0,0,0,94.26,254Zm0,99.22A37.71,37.71,0,1,1,132,315.53,37.74,37.74,0,0,1,94.26,353.24Z"/><path class="cls-2" d="M256,194.48a81.37,81.37,0,1,0,81.36,81.36A81.45,81.45,0,0,0,256,194.48Zm0,138.92a57.56,57.56,0,1,1,57.55-57.56A57.62,57.62,0,0,1,256,333.4Z"/></svg>