<svg id="Layer_1" data-name="Layer 1" xmlns="http://www.w3.org/2000/svg" viewBox="0 0 500 500"><defs><style>.cls-1{fill:#ff003c;}.cls-2{fill:#0092ff;}</style></defs><title>maintainance</title><path class="cls-1" d="M400,482.84A58.6,58.6,0,0,0,482.84,400L288.45,205.59l-82.86,82.86Zm26.12-77.47-20.72,20.72-20.71-20.72,20.71-20.72Zm-41.43-41.43-20.72,20.72-20.72-20.72,20.72-20.72Zm-62.15-62.15,20.71,20.72-20.71,20.71-20.72-20.71Z"/><path class="cls-2" d="M167,291.28l-16.32,16.63C111.82,287,62.52,292.47,29.73,325.26S-8.54,407.35,12.38,446.19l58.78-58.78,41.43,41.43L53.81,487.62c38.84,20.92,88.13,15.45,120.93-17.35S213,388.18,192.09,349.34l16.33-16.63Z"/><path class="cls-2" d="M331.52,207.23l17.82-15.14c38.84,20.92,88.14,15.44,120.93-17.35s38.27-82.09,17.35-120.93l-58.78,58.78L387.41,71.16l58.78-58.78C407.35-8.54,358.06-3.07,325.26,29.73S287,111.82,307.91,150.66l-17.82,15.13Z"/><path class="cls-1" d="M114.82,156.25,205.59,247,247,205.59l-90.77-90.77L145.44,60.73,36.63.29.29,36.63,60.73,145.44Z"/></svg>