<svg id="Layer_1" data-name="Layer 1" xmlns="http://www.w3.org/2000/svg" viewBox="0 0 500 500"><defs><style>.cls-1{fill:#0092ff;}.cls-2{fill:#ff003c;}</style></defs><title>order-management</title><path class="cls-1" d="M394.05,14.05A28.2,28.2,0,0,0,369.7,0H265.15V123.67h192.3Z"/><path class="cls-1" d="M235.84,0H130.31a28.2,28.2,0,0,0-24.37,14.08L42.77,123.67H235.84V0Z"/><path class="cls-2" d="M32.28,153V465.54A34.51,34.51,0,0,0,66.75,500h366.5a34.51,34.51,0,0,0,34.47-34.46V153ZM316.52,284.42l-75.79,75.79a14.63,14.63,0,0,1-20.72,0l-35.53-35.52A14.65,14.65,0,0,1,205.21,304l25.15,25.17L295.8,263.7a14.65,14.65,0,0,1,20.72,20.72Z"/></svg>