<svg id="Layer_1" data-name="Layer 1" xmlns="http://www.w3.org/2000/svg" viewBox="0 0 512 512"><defs><style>.cls-1{fill:#0092ff;}.cls-2{fill:#ff003c;}</style></defs><title>quality</title><g id="surface1"><path class="cls-1" d="M473.49,138.92l0-.4c-.22-4.92-.37-10.12-.46-15.91a54.26,54.26,0,0,0-51.09-53.16C363.05,66.16,317.51,47,278.6,9l-.33-.31a32.76,32.76,0,0,0-44.53,0l-.33.31C194.5,47,149,66.16,90.09,69.45A54.27,54.27,0,0,0,39,122.61c-.09,5.75-.24,11-.46,15.91l0,.93C37.37,199.47,36,274.18,60.94,342c13.74,37.29,34.55,69.7,61.85,96.35,31.1,30.34,71.83,54.43,121.05,71.59a36.83,36.83,0,0,0,19.37,1.36,38.12,38.12,0,0,0,5-1.36c49.17-17.2,89.85-41.3,120.92-71.64,27.29-26.65,48.1-59.07,61.85-96.37C476.05,273.91,474.63,199.06,473.49,138.92Zm-50.71,192.6C396.42,403,342.61,452.07,258.28,481.57a7.51,7.51,0,0,1-1,.25,6.52,6.52,0,0,1-2.64,0,8,8,0,0,1-.94-.25c-84.43-29.44-138.27-78.5-164.61-150C66.1,269.1,67.4,200.52,68.55,140v-.34c.23-5.2.39-10.64.48-16.62A24.11,24.11,0,0,1,91.77,99.45c33.31-1.86,62.58-8.3,89.47-19.68s50.7-27.39,72.91-49a2.76,2.76,0,0,1,3.72,0c22.2,21.59,46.05,37.61,72.91,49s56.15,17.82,89.47,19.68A24.1,24.1,0,0,1,443,123.06c.09,6,.25,11.46.48,16.62C444.6,200.25,445.88,268.89,422.78,331.52Z"/><path class="cls-2" d="M256,128.41A127.6,127.6,0,1,0,383.6,256,127.74,127.74,0,0,0,256,128.41Zm0,225.15A97.56,97.56,0,1,1,353.55,256,97.66,97.66,0,0,1,256,353.56Z"/><path class="cls-2" d="M292.67,216.4,233.4,275.66l-16.08-16.09a15,15,0,0,0-21.25,21.25l26.71,26.71a15,15,0,0,0,21.25,0l69.89-69.89a15,15,0,1,0-21.25-21.24Z"/></g></svg>