<svg id="Layer_1" data-name="Layer 1" xmlns="http://www.w3.org/2000/svg" viewBox="0 0 500 500"><defs><style>.cls-1{fill:#0092ff;}.cls-2{fill:#ff003c;}</style></defs><title>Security</title><path class="cls-1" d="M315.92,188.43a17.6,17.6,0,0,0-12.35-5.07,17.35,17.35,0,0,0-12.34,5.07l-61.11,61.11L209,228.44a17.45,17.45,0,0,0-24.67,24.7l33.44,33.45a17.33,17.33,0,0,0,12.33,5.05h0a17.35,17.35,0,0,0,12.35-5.07l73.45-73.45A17.49,17.49,0,0,0,315.92,188.43Z"/><path class="cls-2" d="M453.79,103.05a9.09,9.09,0,0,0-5.08-7.38L254,.92a9,9,0,0,0-7.94,0L51.29,95.67A9.07,9.07,0,0,0,46.21,103C46,105.9,40.38,174,61.9,257.14c12.67,49,32.18,92.92,58,130.6A341.65,341.65,0,0,0,245.82,499a9.07,9.07,0,0,0,8.36,0A341.58,341.58,0,0,0,380.11,387.74c25.81-37.68,45.32-81.62,58-130.6C459.62,174,454,105.9,453.79,103.05ZM250,351.49A115.46,115.46,0,1,1,365.45,236,115.58,115.58,0,0,1,250,351.49Z"/></svg>