<svg id="Layer_1" data-name="Layer 1" xmlns="http://www.w3.org/2000/svg" viewBox="0 0 500 500"><defs><style>.cls-1{fill:#ff003c;}.cls-2{fill:#0092ff;}</style></defs><title>support</title><path class="cls-1" d="M-.5,298v58.71a53.82,53.82,0,0,0,53.82,53.82H82.67A14.68,14.68,0,0,0,97.35,395.8V244.13h-44A53.81,53.81,0,0,0-.5,298Z"/><path class="cls-2" d="M343,288.16V209.88a34.29,34.29,0,0,0-34.25-34.25H191.29A34.29,34.29,0,0,0,157,209.88v78.28a34.28,34.28,0,0,0,34.25,34.25h33.83l54.62,45.52a14.68,14.68,0,0,0,24.08-11.27V322.41h4.89A34.28,34.28,0,0,0,343,288.16ZM269.57,263.7H230.43a14.68,14.68,0,0,1,0-29.36h39.14a14.68,14.68,0,0,1,0,29.36Z"/><path class="cls-1" d="M196.18,471.14a29.35,29.35,0,0,0,29.36,29.36h48.92a29.36,29.36,0,1,0,0-58.71H225.54A29.35,29.35,0,0,0,196.18,471.14Z"/><path class="cls-1" d="M412.43,439.83v2.94a14.69,14.69,0,0,1-14.67,14.68H331.54a58.48,58.48,0,0,1-.5,29.35h66.72a44.08,44.08,0,0,0,44-44v-2.94Z"/><path class="cls-1" d="M446.68,244.13h-44V395.8a14.68,14.68,0,0,0,14.68,14.68h29.35a53.82,53.82,0,0,0,53.82-53.82V298A53.81,53.81,0,0,0,446.68,244.13Z"/><path class="cls-1" d="M399.45,61.41A211.36,211.36,0,0,0,38.64,210.86v3.91H97.35v-3.91c0-84.17,68.48-152.65,152.65-152.65s152.65,68.48,152.65,152.65v3.91h58.71v-3.91A210,210,0,0,0,399.45,61.41Z"/></svg>