<svg id="Layer_1" data-name="Layer 1" xmlns="http://www.w3.org/2000/svg" viewBox="0 0 512 512"><defs><style>.cls-1{fill:#ff003c;}.cls-2{fill:#0092ff;}</style></defs><title>code copy</title><path class="cls-1" d="M335.14,158.28H176.86a18.58,18.58,0,0,0-18.58,18.58V335.14a18.58,18.58,0,0,0,18.58,18.58H335.14a18.58,18.58,0,0,0,18.58-18.58V176.86A18.58,18.58,0,0,0,335.14,158.28ZM316.57,316.57H195.43V195.43H316.57Z"/><path class="cls-2" d="M493.43,274.57a18.57,18.57,0,1,0,0-37.14H432.86v-42h60.57a18.58,18.58,0,0,0,0-37.15H432.86V97.71a18.56,18.56,0,0,0-18.57-18.57H353.72V18.57a18.58,18.58,0,0,0-37.15,0V79.14h-42V18.57a18.57,18.57,0,1,0-37.14,0V79.14h-42V18.57a18.58,18.58,0,0,0-37.15,0V79.14H97.72A18.57,18.57,0,0,0,79.14,97.71v60.57H18.57a18.58,18.58,0,0,0,0,37.15H79.14v42H18.57a18.57,18.57,0,0,0,0,37.14H79.14v42H18.57a18.58,18.58,0,0,0,0,37.15H79.14v60.57a18.57,18.57,0,0,0,18.58,18.57h60.56v60.57a18.58,18.58,0,0,0,37.15,0V432.86h42v60.57a18.57,18.57,0,1,0,37.14,0V432.86h42v60.57a18.58,18.58,0,0,0,37.15,0V432.86h60.57a18.56,18.56,0,0,0,18.57-18.57V353.72h60.57a18.58,18.58,0,0,0,0-37.15H432.86v-42ZM395.71,395.71H116.29V116.29H395.71Z"/></svg>