<svg id="Layer_1" data-name="Layer 1" xmlns="http://www.w3.org/2000/svg" viewBox="0 0 500 500"><defs><style>.cls-1{fill:#ff003c;}.cls-2{fill:#0092ff;}</style></defs><title>thorough-qa</title><path class="cls-1" d="M485.35,8.3H191.41A14.64,14.64,0,0,0,176.76,23V272a14.64,14.64,0,0,0,14.65,14.65H456.05a14.66,14.66,0,0,1,14.65,14.65,14.65,14.65,0,1,0,29.3,0V23A14.64,14.64,0,0,0,485.35,8.3ZM337.89,228a14.65,14.65,0,1,1,14.65-14.65A14.65,14.65,0,0,1,337.89,228Zm22-79.14a14.76,14.76,0,0,0-7.34,12.7,14.65,14.65,0,0,1-29.3,0,44.09,44.09,0,0,1,22-38,14.65,14.65,0,1,0-22-12.7,14.65,14.65,0,1,1-29.29,0,43.95,43.95,0,1,1,65.93,38Z"/><path class="cls-2" d="M14.65,491.7A14.64,14.64,0,0,0,29.3,477.05,14.66,14.66,0,0,1,44,462.4H308.59a14.64,14.64,0,0,0,14.65-14.65V315.92H191.41A44,44,0,0,1,147.46,272V198.73H14.65A14.64,14.64,0,0,0,0,213.38V477.05A14.64,14.64,0,0,0,14.65,491.7ZM73.24,286.62h30.28a14.65,14.65,0,0,1,0,29.3H73.24a14.65,14.65,0,1,1,0-29.3Zm0,58.59H250a14.65,14.65,0,0,1,0,29.3H73.24a14.65,14.65,0,1,1,0-29.3Z"/></svg>